<?xml version="1.0" encoding="utf-8"?>
<!-- Generator: Adobe Illustrator 23.1.1, SVG Export Plug-In . SVG Version: 6.00 Build 0)  -->
<svg version="1.2" baseProfile="tiny" id="g-committee-donations-tablet-img" xmlns="http://www.w3.org/2000/svg" xmlns:xlink="http://www.w3.org/1999/xlink"
	 x="0px" y="0px" viewBox="0 0 600 2175.496" xml:space="preserve">
<g>
	<g>
		
			<line fill="none" stroke="#D9D9D9" stroke-width="0.75" stroke-miterlimit="10" x1="587.013" y1="375.04" x2="66.887" y2="375.04"/>
		
			<line fill="none" stroke="#D9D9D9" stroke-width="0.75" stroke-miterlimit="10" x1="587.013" y1="773.064" x2="66.887" y2="773.064"/>
		
			<line fill="none" stroke="#D9D9D9" stroke-width="0.75" stroke-miterlimit="10" x1="587.013" y1="673.559" x2="66.887" y2="673.559"/>
		
			<line fill="none" stroke="#D9D9D9" stroke-width="0.75" stroke-miterlimit="10" x1="587.013" y1="574.053" x2="66.887" y2="574.053"/>
		
			<line fill="none" stroke="#D9D9D9" stroke-width="0.75" stroke-miterlimit="10" x1="587.013" y1="474.546" x2="66.887" y2="474.546"/>
		<rect x="75.167" y="418.464" fill="#303B75" width="15.206" height="454.106"/>
		<rect x="110.952" y="539.687" fill="#4AA3BA" width="17.316" height="332.884"/>
		<rect x="145.586" y="618.999" fill="#4AA3BA" width="17.316" height="253.571"/>
		<rect x="180.221" y="634.994" fill="#4AA3BA" width="17.316" height="237.577"/>
		<rect x="214.855" y="803.175" fill="#DA5C53" width="17.316" height="69.396"/>
		<rect x="249.489" y="809.044" fill="#4AA3BA" width="17.316" height="63.527"/>
		<rect x="284.122" y="810.816" fill="#4AA3BA" width="17.318" height="61.754"/>
		<rect x="318.758" y="837.794" fill="#A7D846" width="17.316" height="34.777"/>
		<rect x="353.391" y="847.396" fill="#4AA3BA" width="17.318" height="25.175"/>
		
		<rect x="388.027" y="852.109" fill="#A7D846" width="17.316" height="20.461"/>
		<rect x="422.661" y="852.95" fill="#FFBB33" width="17.316" height="19.621"/>
		<rect x="457.296" y="853.734" fill="#A7D846" width="17.316" height="18.837"/>
		<rect x="491.93" y="855.606" fill="#A7D846" width="17.316" height="16.965"/>
		<rect x="526.565" y="856.129" fill="#A7D846" width="17.316" height="16.442"/>
		<rect x="561.199" y="856.525" fill="#A7D846" width="17.316" height="16.045"/>
	</g>
	<g>
		
			<line fill="none" stroke="#D9D9D9" stroke-width="0.75" stroke-miterlimit="10" x1="585.534" y1="1814.861" x2="65.408" y2="1814.861"/>
		
			<line fill="none" stroke="#D9D9D9" stroke-width="0.75" stroke-miterlimit="10" x1="585.534" y1="1715.314" x2="65.408" y2="1715.314"/>
		
			<line fill="none" stroke="#D9D9D9" stroke-width="0.75" stroke-miterlimit="10" x1="585.534" y1="1615.764" x2="65.408" y2="1615.764"/>
		
			<line fill="none" stroke="#D9D9D9" stroke-width="0.75" stroke-miterlimit="10" x1="588.493" y1="1516.217" x2="65.408" y2="1516.217"/>
		
			<line fill="none" stroke="#D9D9D9" stroke-width="0.75" stroke-miterlimit="10" x1="585.534" y1="1416.669" x2="65.408" y2="1416.669"/>
		
			<line fill="none" stroke="#D9D9D9" stroke-width="0.75" stroke-miterlimit="10" x1="585.534" y1="1317.122" x2="65.408" y2="1317.122"/>
		
			<line fill="none" stroke="#D9D9D9" stroke-width="0.75" stroke-miterlimit="10" x1="585.866" y1="1217.574" x2="65.74" y2="1217.574"/>
		<rect x="349.876" y="1875.542" fill="#FFBB33" width="17.337" height="38.867"/>
		<rect x="107.151" y="1594.523" fill="#303B75" width="17.337" height="319.886"/>
		<rect x="488.577" y="1899.427" fill="#4AA3BA" width="17.337" height="14.982"/>
		<rect x="280.526" y="1864.635" fill="#303B75" width="17.337" height="49.774"/>
		
		<rect x="73.162" y="1173.608" fill="#4AA3BA" width="17.337" height="740.802"/>
		<rect x="211.177" y="1847.534" fill="#4AA3BA" width="17.337" height="66.875"/>
		<rect x="315.201" y="1873.988" fill="#4AA3BA" width="17.337" height="40.421"/>
		<rect x="419.228" y="1895.192" fill="#4AA3BA" width="17.337" height="19.217"/>
		<rect x="453.902" y="1897.686" fill="#4AA3BA" width="17.337" height="16.723"/>
		<rect x="523.253" y="1899.526" fill="#A7D846" width="17.337" height="14.883"/>
		<rect x="141.826" y="1743.186" fill="#A7D846" width="17.337" height="171.223"/>
		
		<rect x="176.501" y="1843.764" fill="#DA5C53" width="17.337" height="70.645"/>
		<rect x="245.852" y="1851.814" fill="#DA5C53" width="17.337" height="62.595"/>
		<rect x="384.552" y="1892.725" fill="#DA5C53" width="17.337" height="21.684"/>
		<rect x="557.928" y="1899.809" fill="#DA5C53" width="17.337" height="14.6"/>
	</g>
	
		<line fill="none" stroke="#D9D9D9" stroke-width="0.75" stroke-miterlimit="10" x1="579.977" y1="1117.018" x2="59.852" y2="1117.018"/>
	<g>
		<rect x="284.873" y="417.377" fill="#FFFFFF" width="254.533" height="121.853"/>
		<rect x="298.269" y="510.15" fill="#FFBB33" width="21.722" height="13.162"/>
		<rect x="298.269" y="429.502" fill="#303B75" width="21.722" height="13.162"/>
		<rect x="298.269" y="449.664" fill="#4AA3BA" width="21.722" height="13.162"/>
		<rect x="298.269" y="469.826" fill="#A7D846" width="21.722" height="13.162"/>
		<rect x="298.269" y="489.988" fill="#DA5C53" width="21.722" height="13.162"/>
	</g>
	<g>
		<rect x="297.963" y="1179.821" fill="#FFFFFF" width="270.104" height="121.853"/>
		<rect x="311.359" y="1272.594" fill="#FFBB33" width="21.722" height="13.162"/>
		<rect x="311.359" y="1191.946" fill="#303B75" width="21.722" height="13.162"/>
		<rect x="311.359" y="1212.108" fill="#4AA3BA" width="21.722" height="13.162"/>
		<rect x="311.359" y="1232.27" fill="#A7D846" width="21.722" height="13.162"/>
		<rect x="311.359" y="1252.432" fill="#DA5C53" width="21.722" height="13.162"/>
	</g>
	<g>
		<line fill="none" stroke="#848484" stroke-miterlimit="10" x1="151.852" y1="1662.496" x2="151.852" y2="1721.294"/>
		<g>
			<path fill="#848484" d="M147.052,1714.459c0.232-0.148,0.542-0.08,0.69,0.153l4.109,6.453l4.109-6.453
				c0.148-0.233,0.458-0.302,0.69-0.153s0.3,0.459,0.153,0.69l-4.531,7.115c-0.092,0.144-0.251,0.231-0.422,0.231
				s-0.33-0.087-0.422-0.231l-4.531-7.115c-0.053-0.083-0.078-0.176-0.078-0.268C146.82,1714.717,146.902,1714.555,147.052,1714.459
				z"/>
		</g>
	</g>
	<g>
		<line fill="none" stroke="#848484" stroke-miterlimit="10" x1="496.852" y1="1861.496" x2="496.852" y2="1890.294"/>
		<g>
			<path fill="#848484" d="M492.052,1883.459c0.232-0.148,0.542-0.08,0.69,0.153l4.109,6.453l4.109-6.453
				c0.148-0.233,0.458-0.302,0.69-0.153s0.3,0.459,0.153,0.69l-4.531,7.115c-0.092,0.144-0.251,0.231-0.422,0.231
				s-0.33-0.087-0.422-0.231l-4.531-7.115c-0.053-0.083-0.078-0.176-0.078-0.268C491.82,1883.717,491.902,1883.555,492.052,1883.459
				z"/>
		</g>
	</g>
	<g>
		<line fill="none" stroke="#848484" stroke-miterlimit="10" x1="428.852" y1="1814.496" x2="428.852" y2="1883.294"/>
		<g>
			<path fill="#848484" d="M424.052,1876.459c0.232-0.148,0.542-0.08,0.69,0.153l4.109,6.453l4.109-6.453
				c0.148-0.233,0.458-0.302,0.69-0.153s0.3,0.459,0.153,0.69l-4.531,7.115c-0.092,0.144-0.251,0.231-0.422,0.231
				s-0.33-0.087-0.422-0.231l-4.531-7.115c-0.053-0.083-0.078-0.176-0.078-0.268C423.82,1876.717,423.902,1876.555,424.052,1876.459
				z"/>
		</g>
	</g>
	<g>
		<line fill="none" stroke="#848484" stroke-miterlimit="10" x1="223.185" y1="1698.496" x2="223.185" y2="1837.294"/>
		<g>
			<path fill="#848484" d="M218.385,1830.459c0.232-0.148,0.542-0.08,0.69,0.153l4.109,6.453l4.109-6.453
				c0.148-0.233,0.458-0.302,0.69-0.153s0.3,0.459,0.153,0.69l-4.531,7.115c-0.092,0.144-0.251,0.231-0.422,0.231
				s-0.33-0.087-0.422-0.231l-4.531-7.115c-0.053-0.083-0.078-0.176-0.078-0.268
				C218.154,1830.717,218.236,1830.555,218.385,1830.459z"/>
		</g>
	</g>
	<g>
		<line fill="none" stroke="#848484" stroke-miterlimit="10" x1="321.852" y1="1754.496" x2="321.852" y2="1863.294"/>
		<g>
			<path fill="#848484" d="M317.052,1856.459c0.232-0.148,0.542-0.08,0.69,0.153l4.109,6.453l4.109-6.453
				c0.148-0.233,0.458-0.302,0.69-0.153s0.3,0.459,0.153,0.69l-4.531,7.115c-0.092,0.144-0.251,0.231-0.422,0.231
				s-0.33-0.087-0.422-0.231l-4.531-7.115c-0.053-0.083-0.078-0.176-0.078-0.268C316.82,1856.717,316.902,1856.555,317.052,1856.459
				z"/>
		</g>
	</g>
	<g>
		<line fill="none" stroke="#848484" stroke-miterlimit="10" x1="262.185" y1="710.308" x2="262.185" y2="799.106"/>
		<g>
			<path fill="#848484" d="M257.385,792.271c0.232-0.148,0.542-0.08,0.69,0.153l4.109,6.453l4.109-6.453
				c0.148-0.233,0.458-0.302,0.69-0.153s0.3,0.459,0.153,0.69l-4.531,7.115c-0.092,0.144-0.251,0.231-0.422,0.231
				s-0.33-0.087-0.422-0.231l-4.531-7.115c-0.053-0.083-0.078-0.176-0.078-0.268C257.154,792.529,257.236,792.367,257.385,792.271z"
				/>
		</g>
	</g>
	<g>
		<line fill="none" stroke="#848484" stroke-miterlimit="10" x1="154.185" y1="590.974" x2="154.185" y2="609.772"/>
		<g>
			<path fill="#848484" d="M149.385,602.938c0.232-0.148,0.542-0.08,0.69,0.153l4.109,6.453l4.109-6.453
				c0.148-0.233,0.458-0.302,0.69-0.153s0.3,0.459,0.153,0.69l-4.531,7.115c-0.092,0.144-0.251,0.231-0.422,0.231
				s-0.33-0.087-0.422-0.231l-4.531-7.115c-0.053-0.083-0.078-0.176-0.078-0.268C149.154,603.195,149.236,603.034,149.385,602.938z"
				/>
		</g>
	</g>
	<g>
		<line fill="none" stroke="#848484" stroke-miterlimit="10" x1="297.852" y1="747.308" x2="297.852" y2="806.106"/>
		<g>
			<path fill="#848484" d="M293.052,799.271c0.232-0.148,0.542-0.08,0.69,0.153l4.109,6.453l4.109-6.453
				c0.148-0.233,0.458-0.302,0.69-0.153s0.3,0.459,0.153,0.69l-4.531,7.115c-0.092,0.144-0.251,0.231-0.422,0.231
				s-0.33-0.087-0.422-0.231l-4.531-7.115c-0.053-0.083-0.078-0.176-0.078-0.268C292.82,799.529,292.902,799.367,293.052,799.271z"
				/>
		</g>
	</g>
	<path style="opacity:0.3;" fill="#D9D9D9" d="M525.927,282.106H65.409c-7.413,0-13.479-6.066-13.479-13.479V64.596
		c0-7.413,6.066-13.479,13.479-13.479h460.518c7.413,0,13.479,6.066,13.479,13.479v204.031
		C539.406,276.04,533.34,282.106,525.927,282.106z"/>
</g>
<style>
#g-committee-donations-tablet-img rect, #g-committee-donations-tablet-img circle, #g-committee-donations-tablet-img path, #g-committee-donations-tablet-img line, #g-committee-donations-tablet-img polyline { vector-effect: non-scaling-stroke; }
</style>
</svg>

