<?xml version="1.0" encoding="utf-8"?>
<!-- Generator: Adobe Illustrator 23.1.1, SVG Export Plug-In . SVG Version: 6.00 Build 0)  -->
<svg version="1.2" baseProfile="tiny" id="g-occupations-tablet-img" xmlns="http://www.w3.org/2000/svg" xmlns:xlink="http://www.w3.org/1999/xlink"
	 x="0px" y="0px" viewBox="0 0 600 1700" xml:space="preserve">
<g>
	<path fill="#D8DEF0" d="M134.093,178.304c7.724-0.006,15.13-3.001,20.589-8.324c5.458-5.324,8.522-12.544,8.517-20.068
		c-0.006-7.525-3.079-14.741-8.544-20.058c-5.465-5.317-12.877-8.301-20.6-8.296c-7.724,0.006-15.131,3.001-20.589,8.325
		c-5.458,5.325-8.522,12.544-8.517,20.069c0.006,7.524,3.079,14.739,8.544,20.056C118.958,175.325,126.369,178.31,134.093,178.304"
		/>
	<path fill="#D8DEF0" d="M134.213,267.497c11.127-0.007,21.795-4.322,29.657-11.991c7.862-7.669,12.276-18.07,12.269-28.909
		c-0.007-10.838-4.435-21.232-12.308-28.89c-7.872-7.66-18.547-11.959-29.673-11.95c-11.125,0.007-21.795,4.322-29.657,11.99
		c-7.862,7.67-12.276,18.07-12.269,28.909c0.007,10.839,4.435,21.233,12.308,28.891
		C112.411,263.206,123.086,267.506,134.213,267.497"/>
	<polygon style="opacity:0.5;" fill="#777777" points="296.905,149.064 292.016,140.597 301.793,140.597 	"/>
	<path fill="#D8DEF0" d="M134.256,400.678c16.947-0.012,33.197-6.582,45.173-18.264c11.975-11.682,18.697-27.523,18.685-44.032
		c-0.011-16.509-6.755-32.34-18.746-44.007c-11.991-11.665-28.25-18.213-45.198-18.202c-16.947,0.012-33.196,6.582-45.172,18.264
		C77.023,306.121,70.3,321.96,70.312,338.469c0.011,16.511,6.755,32.34,18.746,44.006
		C101.049,394.142,117.309,400.69,134.256,400.678"/>
	<path fill="#D8DEF0" d="M134.797,540.576c17.628-0.013,34.53-6.847,46.986-18.999c12.456-12.151,19.448-28.627,19.436-45.799
		c-0.012-17.172-7.027-33.639-19.499-45.773c-12.473-12.134-29.385-18.946-47.011-18.933c-17.628,0.012-34.53,6.846-46.986,18.997
		c-12.456,12.151-19.448,28.627-19.436,45.8c0.012,17.171,7.026,33.637,19.498,45.771
		C100.257,533.777,117.169,540.588,134.797,540.576"/>
	<path fill="#D8DEF0" d="M134.121,686.862c18.722-0.013,36.674-7.268,49.902-20.166c13.23-12.898,20.656-30.388,20.644-48.616
		c-0.013-18.227-7.463-35.708-20.709-48.587c-13.248-12.88-31.209-20.11-49.931-20.098c-18.721,0.013-36.674,7.268-49.904,20.166
		c-13.228,12.898-20.655,30.388-20.643,48.616c0.013,18.228,7.463,35.708,20.709,48.589
		C97.437,679.645,115.399,686.875,134.121,686.862"/>
	<path fill="#D8DEF0" d="M54.313,774.136c0.015,20.637,8.444,40.424,23.432,55.005s35.31,22.766,56.493,22.752"/>
	<path fill="#D8DEF0" d="M134.238,851.892c21.183-0.016,41.494-8.226,56.462-22.828c14.969-14.602,23.37-34.402,23.356-55.037
		c-0.014-20.635-8.443-40.422-23.431-55.004c-14.988-14.582-35.311-22.766-56.493-22.752c-21.183,0.014-41.494,8.227-56.462,22.829
		c-14.968,14.602-23.37,34.4-23.357,55.035"/>
	<path fill="#D8DEF0" d="M48.773,944.676c0.015,22.072,9.032,43.237,25.063,58.833c16.031,15.595,37.768,24.35,60.425,24.334"/>
	<path fill="#D8DEF0" d="M134.26,1027.842c22.656-0.016,44.383-8.799,60.392-24.416c16.009-15.619,24.996-36.797,24.981-58.868
		c-0.014-22.072-9.031-43.237-25.062-58.832c-16.031-15.596-37.768-24.352-60.425-24.335c-22.657,0.016-44.383,8.799-60.392,24.417
		s-24.996,36.795-24.982,58.866"/>
	<path fill="#D8DEF0" d="M214.967,1177.662c12.196-21.863,15.312-47.491,8.663-71.235c-6.649-23.745-22.521-43.671-44.119-55.386
		c-21.598-11.717-47.161-14.268-71.058-7.092c-23.897,7.175-44.175,23.492-56.372,45.357c-12.196,21.863-15.312,47.491-8.663,71.235
		c6.649,23.745,22.521,43.671,44.119,55.386c21.6,11.717,47.162,14.267,71.059,7.092
		C182.492,1215.843,202.772,1199.527,214.967,1177.662"/>
	<path fill="#3F5EBA" d="M403.661,165.371c0,12.34,5.033,24.177,13.99,32.903c8.958,8.728,21.109,13.63,33.777,13.63"/>
	<path fill="#3F5EBA" d="M451.428,211.904c12.667,0,24.819-4.902,33.776-13.63c8.958-8.726,13.99-20.563,13.99-32.903
		c0-12.341-5.032-24.179-13.99-32.905c-8.957-8.726-21.109-13.629-33.776-13.629c-12.668,0-24.819,4.903-33.777,13.629
		c-8.957,8.727-13.99,20.564-13.99,32.905"/>
	<path fill="#3F5EBA" d="M450.885,346.639c16.928,0,33.165-6.552,45.135-18.213c11.971-11.662,18.697-27.48,18.697-43.971
		c0-16.491-6.726-32.309-18.697-43.97c-11.969-11.662-28.207-18.213-45.135-18.213c-16.928,0-33.165,6.551-45.135,18.213
		c-11.971,11.661-18.696,27.479-18.696,43.97c0,16.491,6.725,32.309,18.696,43.971C417.72,340.087,433.957,346.639,450.885,346.639"
		/>
	<path fill="#3F5EBA" d="M451.428,486.569c17.69,0,34.657-6.847,47.166-19.033c12.508-12.186,19.536-28.716,19.536-45.949
		c0-17.233-7.028-33.763-19.536-45.948c-12.51-12.187-29.477-19.033-47.166-19.033c-17.69,0-34.658,6.847-47.166,19.033
		c-12.508,12.185-19.536,28.715-19.536,45.948c0,17.233,7.028,33.763,19.536,45.949C416.77,479.722,433.738,486.569,451.428,486.569
		"/>
	<path fill="#3F5EBA" d="M451.366,677.78c24.177,0,47.369-9.359,64.466-26.013c17.097-16.656,26.703-39.248,26.703-62.803
		c0-23.554-9.605-46.147-26.703-62.803c-17.097-16.654-40.289-26.013-64.466-26.013c-24.179,0-47.369,9.36-64.466,26.013
		c-17.097,16.656-26.702,39.249-26.702,62.803c0,23.555,9.605,46.147,26.702,62.803C403.997,668.421,427.188,677.78,451.366,677.78"
		/>
	<path fill="#3F5EBA" d="M450.95,878.092c25.062,0,49.102-9.702,66.824-26.966c17.722-17.265,27.68-40.683,27.68-65.1
		c0-24.416-9.958-47.835-27.68-65.1c-17.722-17.264-41.762-26.965-66.824-26.965c-25.063,0-49.102,9.701-66.824,26.965
		c-17.722,17.265-27.68,40.684-27.68,65.1c0,24.417,9.958,47.835,27.68,65.1C401.848,868.39,425.887,878.092,450.95,878.092"/>
	<path fill="#3F5EBA" d="M450.623,1076.997c25.427,0,49.814-9.841,67.793-27.356c17.978-17.516,28.081-41.275,28.081-66.045
		s-10.103-48.529-28.081-66.043c-17.979-17.516-42.367-27.356-67.793-27.356c-25.426,0-49.814,9.84-67.793,27.356
		c-17.978,17.514-28.081,41.273-28.081,66.043s10.103,48.529,28.081,66.045C400.809,1067.156,425.197,1076.997,450.623,1076.997"/>
	<path fill="#3F5EBA" d="M450.885,1303.488c29.125,0,57.06-11.272,77.654-31.334c20.594-20.063,32.165-47.277,32.165-75.65
		c0-28.373-11.571-55.587-32.165-75.65c-20.594-20.062-48.529-31.335-77.654-31.335c-29.124,0-57.059,11.273-77.654,31.335
		c-20.594,20.063-32.165,47.277-32.165,75.65c0,28.373,11.571,55.587,32.165,75.65
		C393.826,1292.215,421.762,1303.488,450.885,1303.488"/>
	<path fill="#3F5EBA" d="M451.95,1570.819c34.824,0,68.227-13.479,92.851-37.468c24.626-23.989,38.461-56.53,38.461-90.456
		s-13.835-66.467-38.461-90.456c-24.623-23.989-58.027-37.468-92.851-37.468c-34.825,0-68.227,13.479-92.852,37.468
		c-24.624,23.989-38.461,56.53-38.461,90.456s13.836,66.467,38.461,90.456C383.723,1557.34,417.126,1570.819,451.95,1570.819"/>
	<g style="opacity:0.5;">
		<polygon fill="#777777" points="451.296,1594.445 446.407,1602.912 456.184,1602.912 		"/>
	</g>
</g>
<style>
#g-occupations-tablet-img rect, #g-occupations-tablet-img circle, #g-occupations-tablet-img path, #g-occupations-tablet-img line, #g-occupations-tablet-img polyline { vector-effect: non-scaling-stroke; }
</style>
</svg>

