<?xml version="1.0" encoding="utf-8"?>
<!-- Generator: Adobe Illustrator 23.1.1, SVG Export Plug-In . SVG Version: 6.00 Build 0)  -->
<svg version="1.2" baseProfile="tiny" id="g-occupations-mobile-img" xmlns="http://www.w3.org/2000/svg" xmlns:xlink="http://www.w3.org/1999/xlink"
	 x="0px" y="0px" viewBox="0 0 300 1270" xml:space="preserve">
<g>
	<path fill="#D8DEF0" d="M66.214,223.868c5.364-0.004,10.507-2.084,14.298-5.78c3.79-3.697,5.918-8.711,5.915-13.936
		c-0.004-5.226-2.138-10.237-5.934-13.93c-3.795-3.692-8.942-5.765-14.305-5.761c-5.364,0.004-10.508,2.084-14.298,5.781
		c-3.79,3.698-5.918,8.711-5.915,13.937c0.004,5.225,2.138,10.235,5.934,13.928C55.704,221.799,60.85,223.872,66.214,223.868"/>
	<path fill="#D8DEF0" d="M66.297,285.808c7.727-0.005,15.136-3.001,20.595-8.327c5.46-5.326,8.525-12.549,8.52-20.076
		c-0.005-7.526-3.08-14.744-8.547-20.063c-5.467-5.319-12.88-8.305-20.607-8.299c-7.726,0.005-15.136,3.001-20.595,8.326
		c-5.46,5.327-8.525,12.549-8.52,20.076c0.005,7.527,3.08,14.745,8.547,20.063C51.157,282.827,58.57,285.813,66.297,285.808"/>
	<polygon fill="#777777" points="149.278,146.896 145.883,141.016 152.673,141.016 	"/>
	<path fill="#D8DEF0" d="M66.327,378.294c11.769-0.008,23.054-4.571,31.37-12.683c8.316-8.113,12.984-19.113,12.976-30.578
		c-0.007-11.465-4.691-22.459-13.018-30.56c-8.327-8.101-19.618-12.648-31.387-12.64c-11.769,0.008-23.053,4.571-31.369,12.684
		c-8.316,8.113-12.985,19.113-12.977,30.578c0.007,11.466,4.691,22.459,13.018,30.56C43.267,373.755,54.559,378.303,66.327,378.294"
		/>
	<path fill="#D8DEF0" d="M66.703,475.446c12.241-0.009,23.979-4.755,32.629-13.193c8.65-8.438,13.506-19.88,13.497-31.805
		c-0.008-11.925-4.88-23.36-13.541-31.787c-8.662-8.426-20.406-13.157-32.647-13.148c-12.241,0.008-23.979,4.754-32.629,13.193
		c-8.65,8.438-13.506,19.88-13.497,31.806c0.008,11.924,4.879,23.359,13.54,31.786C42.717,470.724,54.461,475.454,66.703,475.446"/>
	<path fill="#D8DEF0" d="M66.233,577.033c13.001-0.009,25.468-5.047,34.654-14.004c9.187-8.957,14.344-21.102,14.336-33.761
		c-0.009-12.658-5.183-24.797-14.382-33.741c-9.2-8.945-21.673-13.965-34.674-13.957c-13.001,0.009-25.468,5.047-34.655,14.004
		c-9.186,8.957-14.343,21.102-14.335,33.761c0.009,12.659,5.183,24.797,14.382,33.742C40.759,572.021,53.232,577.042,66.233,577.033
		"/>
	<path fill="#D8DEF0" d="M10.812,637.64c0.011,14.331,5.864,28.073,16.272,38.198c10.408,10.125,24.521,15.81,39.231,15.8"/>
	<path fill="#D8DEF0" d="M66.315,691.637c14.71-0.011,28.815-5.713,39.21-15.853c10.395-10.14,16.229-23.89,16.219-38.22
		s-5.863-28.071-16.272-38.197c-10.408-10.126-24.522-15.81-39.231-15.8c-14.71,0.01-28.815,5.713-39.21,15.854
		c-10.394,10.14-16.229,23.889-16.22,38.219"/>
	<path fill="#D8DEF0" d="M6.964,756.07c0.011,15.328,6.272,30.026,17.405,40.856c11.133,10.83,26.228,16.91,41.962,16.898"/>
	<path fill="#D8DEF0" d="M66.33,813.825c15.733-0.011,30.821-6.111,41.939-16.956c11.117-10.846,17.359-25.553,17.348-40.88
		c-0.01-15.328-6.271-30.026-17.404-40.855c-11.133-10.831-26.228-16.911-41.961-16.899c-15.734,0.011-30.821,6.111-41.939,16.956
		S6.954,740.743,6.964,756.07"/>
	<path fill="#D8DEF0" d="M122.377,917.866c8.469-15.183,10.633-32.98,6.016-49.469c-4.617-16.489-15.639-30.327-30.638-38.463
		c-14.999-8.137-32.751-9.908-49.346-4.925c-16.595,4.982-30.677,16.314-39.147,31.498c-8.469,15.183-10.633,32.98-6.016,49.469
		s15.639,30.327,30.638,38.463c15,8.137,32.751,9.908,49.346,4.925C99.825,944.381,113.908,933.05,122.377,917.866"/>
	<path fill="#3F5EBA" d="M173.414,214.886c0,8.57,3.495,16.79,9.715,22.849c6.221,6.061,14.659,9.465,23.456,9.465"/>
	<path fill="#3F5EBA" d="M206.586,247.201c8.796,0,17.235-3.404,23.455-9.465c6.221-6.059,9.715-14.28,9.715-22.849
		c0-8.57-3.495-16.791-9.715-22.851c-6.22-6.059-14.659-9.465-23.455-9.465c-8.797,0-17.235,3.405-23.456,9.465
		c-6.22,6.06-9.715,14.281-9.715,22.851"/>
	<path fill="#3F5EBA" d="M206.208,340.767c11.755,0,23.031-4.55,31.344-12.648c8.313-8.099,12.984-19.083,12.984-30.536
		c0-11.452-4.671-22.437-12.984-30.535c-8.312-8.099-19.588-12.648-31.344-12.648c-11.755,0-23.031,4.549-31.344,12.648
		c-8.313,8.098-12.983,19.082-12.983,30.535c0,11.452,4.67,22.437,12.983,30.536C183.177,336.217,194.453,340.767,206.208,340.767"
		/>
	<path fill="#3F5EBA" d="M206.585,437.941c12.284,0,24.067-4.755,32.754-13.217c8.686-8.463,13.567-19.942,13.567-31.909
		c0-11.967-4.881-23.446-13.567-31.908c-8.687-8.463-20.47-13.217-32.754-13.217c-12.284,0-24.068,4.755-32.754,13.217
		c-8.686,8.462-13.567,19.941-13.567,31.908c0,11.967,4.88,23.446,13.567,31.909C182.517,433.186,194.301,437.941,206.585,437.941"
		/>
	<path fill="#3F5EBA" d="M206.543,570.726c16.79,0,32.895-6.499,44.768-18.065c11.873-11.567,18.543-27.255,18.543-43.613
		c0-16.357-6.67-32.047-18.543-43.613c-11.873-11.565-27.978-18.065-44.768-18.065c-16.791,0-32.895,6.5-44.768,18.065
		c-11.873,11.567-18.543,27.256-18.543,43.613c0,16.358,6.67,32.047,18.543,43.613C173.648,564.227,189.752,570.726,206.543,570.726
		"/>
	<path fill="#3F5EBA" d="M206.254,709.831c17.404,0,34.099-6.737,46.406-18.726c12.307-11.99,19.222-28.252,19.222-45.209
		c0-16.955-6.915-33.219-19.222-45.208c-12.307-11.989-29.001-18.726-46.406-18.726c-17.405,0-34.099,6.737-46.406,18.726
		c-12.307,11.99-19.222,28.253-19.222,45.208c0,16.956,6.915,33.219,19.222,45.209C172.155,703.094,188.849,709.831,206.254,709.831
		"/>
	<path fill="#3F5EBA" d="M206.027,847.96c17.657,0,34.593-6.834,47.079-18.997c12.485-12.164,19.5-28.663,19.5-45.864
		s-7.016-33.701-19.5-45.863c-12.486-12.164-29.421-18.997-47.079-18.997c-17.657,0-34.593,6.834-47.079,18.997
		c-12.485,12.163-19.5,28.662-19.5,45.863s7.016,33.701,19.5,45.864C171.433,841.126,188.37,847.96,206.027,847.96"/>
	<path fill="#3F5EBA" d="M206.209,1005.245c20.226,0,39.625-7.828,53.926-21.76c14.301-13.933,22.337-32.831,22.337-52.535
		c0-19.703-8.036-38.602-22.337-52.535c-14.301-13.932-33.701-21.761-53.926-21.761c-20.225,0-39.624,7.829-53.926,21.761
		c-14.301,13.933-22.337,32.831-22.337,52.535c0,19.703,8.036,38.602,22.337,52.535
		C166.585,997.417,185.984,1005.245,206.209,1005.245"/>
	<path fill="#3F5EBA" d="M206.948,1190.892c24.183,0,47.38-9.36,64.48-26.019c17.101-16.659,26.709-39.257,26.709-62.816
		s-9.608-46.157-26.709-62.816c-17.1-16.659-40.297-26.019-64.48-26.019c-24.184,0-47.38,9.36-64.48,26.019
		c-17.1,16.659-26.709,39.257-26.709,62.816s9.609,46.157,26.709,62.816C159.568,1181.532,182.764,1190.892,206.948,1190.892"/>
	<polygon fill="#777777" points="207.327,1213.132 203.932,1219.012 210.722,1219.012 	"/>
</g>
<style>
#g-occupations-mobile-img rect, #g-occupations-mobile-img circle, #g-occupations-mobile-img path, #g-occupations-mobile-img line, #g-occupations-mobile-img polyline { vector-effect: non-scaling-stroke; }
</style>
</svg>

