<?xml version="1.0" encoding="utf-8"?>
<!-- Generator: Adobe Illustrator 23.1.1, SVG Export Plug-In . SVG Version: 6.00 Build 0)  -->
<svg version="1.2" baseProfile="tiny" id="g-occupations-desktop-img" xmlns="http://www.w3.org/2000/svg" xmlns:xlink="http://www.w3.org/1999/xlink"
	 x="0px" y="0px" viewBox="0 0 1200 1400" xml:space="preserve">
<g>
	<path fill="#3F5EBA" d="M916.863,912.201c19.586,0,38.372-7.581,52.223-21.074c13.849-13.493,21.631-31.795,21.631-50.875
		s-7.781-37.382-21.631-50.874c-13.851-13.493-32.637-21.074-52.223-21.074c-19.586,0-38.374,7.581-52.223,21.074
		c-13.849,13.492-21.631,31.794-21.631,50.874s7.781,37.382,21.631,50.875C878.489,904.62,897.277,912.201,916.863,912.201"/>
	<path fill="#3F5EBA" d="M523.697,905.88c18.743,0,36.721-7.255,49.974-20.166c13.254-12.912,20.702-30.426,20.702-48.686
		c0-18.26-7.448-35.773-20.702-48.684c-13.253-12.912-31.231-20.166-49.974-20.166c-18.743,0-36.721,7.253-49.974,20.166
		c-13.254,12.911-20.7,30.425-20.7,48.684c0,18.26,7.446,35.773,20.7,48.686C486.976,898.626,504.954,905.88,523.697,905.88"/>
	<path fill="#3F5EBA" d="M698.267,873.776c28.153,0,55.155-10.897,75.062-30.289c19.906-19.393,31.091-45.7,31.091-73.125
		s-11.186-53.732-31.091-73.124c-19.907-19.393-46.909-30.289-75.062-30.289c-28.152,0-55.155,10.895-75.062,30.289
		c-19.906,19.392-31.091,45.698-31.091,73.124s11.186,53.732,31.091,73.125C643.112,862.88,670.115,873.776,698.267,873.776"/>
	<path fill="#3F5EBA" d="M650.913,1277.582c26.77,0,52.448-10.362,71.378-28.802c18.93-18.442,29.565-43.456,29.565-69.536
		c0-26.079-10.635-51.095-29.565-69.536c-18.93-18.439-44.608-28.802-71.378-28.802c-26.771,0-52.448,10.363-71.378,28.802
		c-18.93,18.442-29.565,43.457-29.565,69.536c0,26.081,10.635,51.094,29.565,69.536
		C598.466,1267.22,624.142,1277.582,650.913,1277.582"/>
	<path fill="#3F5EBA" d="M513.602,1119.472c27.749,0,54.367-10.742,73.989-29.857c19.622-19.116,30.648-45.045,30.648-72.08
		c0-27.034-11.026-52.964-30.648-72.08c-19.622-19.115-46.24-29.856-73.989-29.856c-27.75,0-54.367,10.741-73.989,29.856
		c-19.622,19.116-30.648,45.046-30.648,72.08c0,27.035,11.026,52.964,30.648,72.08
		C459.235,1108.729,485.852,1119.472,513.602,1119.472"/>
	<path fill="#3F5EBA" d="M777.536,1107.01c32.248,0,63.178-12.481,85.979-34.694c22.802-22.214,35.614-52.346,35.614-83.761
		s-12.812-61.546-35.614-83.761c-22.802-22.213-53.732-34.695-85.979-34.695c-32.246,0-63.177,12.482-85.98,34.695
		c-22.802,22.214-35.614,52.346-35.614,83.761s12.812,61.546,35.614,83.761C714.359,1094.53,745.29,1107.01,777.536,1107.01"/>
	<path fill="#3F5EBA" d="M962.33,1041.167c14.025,0,27.48-5.428,37.397-15.092c9.918-9.661,15.49-22.767,15.49-36.431
		c0-13.665-5.572-26.771-15.49-36.433c-9.917-9.661-23.372-15.09-37.397-15.09c-14.026,0-27.48,5.429-37.398,15.09
		c-9.917,9.662-15.49,22.769-15.49,36.433c0,13.663,5.573,26.77,15.49,36.431C934.85,1035.74,948.303,1041.167,962.33,1041.167"/>
	<path fill="#3F5EBA" d="M960.039,1334.794c38.557,0,75.542-14.924,102.805-41.485c27.266-26.561,42.584-62.59,42.584-100.154
		s-15.319-73.593-42.584-100.154c-27.263-26.561-64.248-41.485-102.805-41.485c-38.559,0-75.542,14.924-102.807,41.485
		c-27.265,26.561-42.584,62.59-42.584,100.154s15.32,73.593,42.584,100.154C884.497,1319.87,921.481,1334.794,960.039,1334.794"/>
	<path style="opacity:0.5;" fill="none" stroke="#3F5EBA" stroke-width="11" stroke-miterlimit="10" d="M1150.318,1190.291
		c0,105.349-73.391,190.74-178.74,190.74c-83.794,0-166.968-54.028-192.576-129.149c-25.238,44.788-73.234,75.029-128.304,75.029
		c-81.286,0-147.18-65.894-147.18-147.18c0-3.881,0.145-7.722,0.449-11.524c-79.807-4.871-143.009-71.135-143.009-152.156
		c0-53.777,27.852-101.059,69.907-128.185c-7.973-14.903-12.487-31.931-12.487-50.015c0-58.687,47.573-106.26,106.26-106.26
		c9.385,0,18.48,1.214,27.152,3.498c15.682-66.343,75.293-115.698,146.428-115.698c77.629,0,141.53,58.78,149.609,134.257
		c18.955-15.457,43.151-24.697,69.511-24.697c60.878,0,110.22,49.342,110.22,110.22c0,27.931-10.389,53.447-27.535,72.864
		c28.05,13.913,47.335,42.86,47.335,76.296c0,10.52-1.901,20.592-5.386,29.885
		C1106.072,1048.959,1150.318,1114.457,1150.318,1190.291z"/>
	
		<line style="opacity:0.7;" fill="none" stroke="#777777" stroke-miterlimit="10" x1="86.045" y1="937.617" x2="1009.745" y2="347.305"/>
	<path fill="#D8DEF0" d="M528.201,337.172c8.21-0.006,16.082-3.19,21.885-8.848c5.801-5.659,9.058-13.333,9.053-21.331
		c-0.006-7.999-3.273-15.669-9.082-21.321c-5.809-5.652-13.687-8.824-21.896-8.818c-8.21,0.006-16.083,3.19-21.884,8.849
		c-5.801,5.661-9.058,13.333-9.053,21.332c0.006,7.997,3.273,15.666,9.082,21.318C512.114,334.005,519.991,337.178,528.201,337.172"
		/>
	<path fill="#B6C5F0" d="M475.168,359.501c12.963-23.239,16.276-50.479,9.208-75.718c-7.067-25.239-23.938-46.419-46.896-58.872
		c-22.958-12.454-50.129-15.166-75.529-7.539c-25.4,7.626-46.955,24.97-59.919,48.211c-12.963,23.239-16.276,50.479-9.208,75.718
		c7.067,25.239,23.938,46.419,46.896,58.872c22.959,12.454,50.13,15.165,75.53,7.539
		C440.649,400.084,462.205,382.741,475.168,359.501"/>
	<path fill="#B6C5F0" d="M513.48,555.517c24.082-0.016,47.175-9.353,64.193-25.952c17.016-16.602,26.569-39.112,26.553-62.572
		c-0.015-23.461-9.599-45.958-26.639-62.534c-17.04-16.578-40.145-25.884-64.227-25.866c-24.083,0.016-47.175,9.353-64.193,25.954
		s-26.569,39.111-26.554,62.571c0.016,23.461,9.6,45.958,26.64,62.535C466.293,546.229,489.398,555.535,513.48,555.517"/>
	<path fill="#B6C5F0" d="M499.23,237.429c22.516-0.016,44.105-8.744,60.015-24.264c15.911-15.521,24.841-36.566,24.826-58.5
		s-8.974-42.966-24.906-58.465c-15.931-15.499-37.533-24.198-60.048-24.183c-22.516,0.015-44.105,8.745-60.015,24.266
		c-15.91,15.521-24.841,36.565-24.827,58.498c0.016,21.935,8.976,42.968,24.907,58.466
		C455.113,228.744,476.714,237.444,499.23,237.429"/>
	<path fill="#B6C5F0" d="M297.557,226.078c18.013-0.013,35.286-6.996,48.015-19.413c12.729-12.417,19.874-29.255,19.861-46.803
		c-0.011-17.548-7.18-34.375-19.925-46.776c-12.745-12.4-30.028-19.359-48.042-19.348c-18.013,0.013-35.285,6.996-48.014,19.414
		c-12.729,12.419-19.875,29.255-19.862,46.803c0.011,17.549,7.18,34.375,19.925,46.775
		C262.261,219.13,279.544,226.09,297.557,226.078"/>
	<path fill="#B6C5F0" d="M178.694,232.005c11.827-0.008,23.167-4.594,31.523-12.745c8.357-8.152,13.048-19.207,13.041-30.728
		c-0.008-11.52-4.714-22.568-13.083-30.708c-8.367-8.142-19.714-12.711-31.541-12.702c-11.826,0.008-23.167,4.594-31.523,12.744
		c-8.357,8.153-13.048,19.207-13.041,30.728c0.008,11.521,4.714,22.569,13.083,30.709
		C155.52,227.443,166.867,232.014,178.694,232.005"/>
	<path fill="#B6C5F0" d="M188.405,378.037c18.737-0.014,36.703-7.277,49.943-20.194c13.24-12.915,20.672-30.428,20.659-48.681
		c-0.013-18.253-7.469-35.755-20.726-48.653c-13.257-12.898-31.234-20.138-49.969-20.124c-18.737,0.013-36.703,7.276-49.943,20.193
		c-13.24,12.915-20.672,30.428-20.659,48.682c0.013,18.251,7.468,35.754,20.725,48.652
		C151.692,370.811,169.668,378.05,188.405,378.037"/>
	<path fill="#B6C5F0" d="M263.566,519.278c19.9-0.014,38.982-7.725,53.042-21.435c14.062-13.71,21.956-32.3,21.943-51.675
		c-0.014-19.374-7.933-37.955-22.013-51.645c-14.081-13.691-33.173-21.375-53.073-21.362c-19.899,0.014-38.982,7.725-53.044,21.435
		c-14.061,13.71-21.954,32.3-21.942,51.675c0.014,19.375,7.933,37.955,22.013,51.646
		C224.574,511.607,243.666,519.292,263.566,519.278"/>
	<path style="opacity:0.1;" fill="none" stroke="#3F5EBA" stroke-width="11" stroke-miterlimit="10" d="M643.185,477.628
		c0.049,71.039-57.494,117.14-128.533,117.188s-128.659-57.494-128.708-128.532c-0.001-3.219,0.109-6.399,0.348-9.555
		c-3.941-0.074-7.831-0.324-11.684-0.729c-5.601,55.952-52.826,99.664-110.255,99.703c-61.23,0.042-110.914-49.573-110.956-110.803
		c-0.008-11.229,1.657-22.077,4.768-32.293c-45.134-12.298-78.324-53.573-78.357-102.614c-0.023-32.149,14.214-60.974,36.718-80.518
		c-7.636-11.641-12.081-25.551-12.092-40.516c-0.028-40.945,33.137-74.155,74.08-74.183c7.983-0.005,15.677,1.257,22.876,3.584
		c15.815-37.139,52.647-63.193,95.567-63.222c35.9-0.025,67.554,18.15,86.227,45.826c20.118-44.277,64.702-75.075,116.505-75.111
		c70.684-0.048,128.026,57.215,128.076,127.9c0.032,47.431-25.739,88.848-64.058,110.988c11.729,10.092,19.165,25.051,19.177,41.74
		c0.011,16.348-7.1,31.039-18.397,41.146C610.703,367.098,643.148,424.328,643.185,477.628z"/>
</g>
<style>
#g-occupations-desktop-img rect, #g-occupations-desktop-img circle, #g-occupations-desktop-img path, #g-occupations-desktop-img line, #g-occupations-desktop-img polyline { vector-effect: non-scaling-stroke; }
</style>
</svg>

