<?xml version="1.0" encoding="utf-8"?>
<!-- Generator: Adobe Illustrator 23.1.1, SVG Export Plug-In . SVG Version: 6.00 Build 0)  -->
<svg version="1.2" baseProfile="tiny" id="g-committee-donations-desktop-img" xmlns="http://www.w3.org/2000/svg" xmlns:xlink="http://www.w3.org/1999/xlink"
	 x="0px" y="0px" viewBox="0 0 1200 1167.446" xml:space="preserve">
<g>
	<g>
		
			<line fill="none" stroke="#D9D9D9" stroke-width="0.75" stroke-miterlimit="10" x1="1168.359" y1="795.844" x2="631.362" y2="795.844"/>
		
			<line fill="none" stroke="#D9D9D9" stroke-width="0.75" stroke-miterlimit="10" x1="1168.359" y1="696.296" x2="631.362" y2="696.296"/>
		
			<line fill="none" stroke="#D9D9D9" stroke-width="0.75" stroke-miterlimit="10" x1="1168.359" y1="596.747" x2="631.362" y2="596.747"/>
		
			<line fill="none" stroke="#D9D9D9" stroke-width="0.75" stroke-miterlimit="10" x1="1171.413" y1="497.199" x2="631.362" y2="497.199"/>
		
			<line fill="none" stroke="#D9D9D9" stroke-width="0.75" stroke-miterlimit="10" x1="1168.359" y1="397.652" x2="631.362" y2="397.652"/>
		
			<line fill="none" stroke="#D9D9D9" stroke-width="0.75" stroke-miterlimit="10" x1="1168.359" y1="298.104" x2="631.362" y2="298.104"/>
		
			<line fill="none" stroke="#D9D9D9" stroke-width="0.75" stroke-miterlimit="10" x1="1168.701" y1="198.556" x2="631.704" y2="198.556"/>
		<rect x="925.056" y="856.524" fill="#FFBB33" width="17.9" height="38.867"/>
		<rect x="674.459" y="575.506" fill="#303B75" width="17.9" height="319.886"/>
		<rect x="1068.257" y="880.41" fill="#4AA3BA" width="17.9" height="14.982"/>
		<rect x="853.458" y="845.618" fill="#303B75" width="17.9" height="49.774"/>
		
		<rect x="639.367" y="154.59" fill="#4AA3BA" width="17.9" height="740.802"/>
		<rect x="781.859" y="828.517" fill="#4AA3BA" width="17.9" height="66.875"/>
		<rect x="889.257" y="854.97" fill="#4AA3BA" width="17.9" height="40.421"/>
		<rect x="996.658" y="876.175" fill="#4AA3BA" width="17.9" height="19.217"/>
		<rect x="1032.457" y="878.668" fill="#4AA3BA" width="17.9" height="16.723"/>
		<rect x="1104.058" y="880.508" fill="#A7D846" width="17.9" height="14.883"/>
		<rect x="710.258" y="724.168" fill="#A7D846" width="17.9" height="171.223"/>
		
		<rect x="746.058" y="824.747" fill="#DA5C53" width="17.9" height="70.645"/>
		<rect x="817.658" y="832.797" fill="#DA5C53" width="17.9" height="62.595"/>
		<rect x="960.857" y="873.707" fill="#DA5C53" width="17.9" height="21.684"/>
		<rect x="1139.857" y="880.791" fill="#DA5C53" width="17.9" height="14.6"/>
	</g>
	<g>
		
			<line fill="none" stroke="#D9D9D9" stroke-width="0.75" stroke-miterlimit="10" x1="599.965" y1="398.023" x2="62.969" y2="398.023"/>
		
			<line fill="none" stroke="#D9D9D9" stroke-width="0.75" stroke-miterlimit="10" x1="599.965" y1="796.046" x2="62.969" y2="796.046"/>
		
			<line fill="none" stroke="#D9D9D9" stroke-width="0.75" stroke-miterlimit="10" x1="599.965" y1="696.541" x2="62.969" y2="696.541"/>
		
			<line fill="none" stroke="#D9D9D9" stroke-width="0.75" stroke-miterlimit="10" x1="599.965" y1="597.035" x2="62.969" y2="597.035"/>
		
			<line fill="none" stroke="#D9D9D9" stroke-width="0.75" stroke-miterlimit="10" x1="599.965" y1="497.529" x2="62.969" y2="497.529"/>
		<rect x="71.517" y="441.447" fill="#303B75" width="15.699" height="454.106"/>
		<rect x="108.462" y="562.669" fill="#4AA3BA" width="17.878" height="332.884"/>
		<rect x="144.219" y="641.982" fill="#4AA3BA" width="17.878" height="253.571"/>
		<rect x="179.978" y="657.976" fill="#4AA3BA" width="17.878" height="237.577"/>
		<rect x="215.735" y="826.157" fill="#DA5C53" width="17.878" height="69.396"/>
		<rect x="251.493" y="832.026" fill="#4AA3BA" width="17.878" height="63.527"/>
		<rect x="287.25" y="833.799" fill="#4AA3BA" width="17.879" height="61.754"/>
		<rect x="323.008" y="860.776" fill="#A7D846" width="17.878" height="34.777"/>
		<rect x="358.766" y="870.378" fill="#4AA3BA" width="17.879" height="25.175"/>
		
		<rect x="394.524" y="875.092" fill="#A7D846" width="17.878" height="20.461"/>
		<rect x="430.282" y="875.932" fill="#FFBB33" width="17.878" height="19.621"/>
		<rect x="466.04" y="876.716" fill="#A7D846" width="17.878" height="18.837"/>
		<rect x="501.797" y="878.588" fill="#A7D846" width="17.878" height="16.965"/>
		<rect x="537.556" y="879.111" fill="#A7D846" width="17.878" height="16.442"/>
		<rect x="573.313" y="879.508" fill="#A7D846" width="17.878" height="16.045"/>
	</g>
	<line fill="none" stroke="#D9D9D9" stroke-width="0.75" stroke-miterlimit="10" x1="1168.701" y1="98" x2="631.704" y2="98"/>
	<path style="opacity:0.3;" fill="#D9D9D9" d="M526.966,288.083H66.448c-7.413,0-13.479-6.066-13.479-13.479V70.574
		c0-7.413,6.066-13.479,13.479-13.479h460.518c7.413,0,13.479,6.066,13.479,13.479v204.031
		C540.445,282.018,534.379,288.083,526.966,288.083z"/>
	<g>
		<rect x="875.463" y="130.301" fill="#FFFFFF" width="270.104" height="121.853"/>
		<rect x="888.859" y="223.074" fill="#FFBB33" width="21.722" height="13.162"/>
		<rect x="888.859" y="142.426" fill="#303B75" width="21.722" height="13.162"/>
		<rect x="888.859" y="162.588" fill="#4AA3BA" width="21.722" height="13.162"/>
		<rect x="888.859" y="182.75" fill="#A7D846" width="21.722" height="13.162"/>
		<rect x="888.859" y="202.912" fill="#DA5C53" width="21.722" height="13.162"/>
	</g>
	<rect x="299.948" y="416.842" fill="#FFFFFF" width="270.104" height="121.853"/>
	<rect x="313.344" y="509.615" fill="#FFBB33" width="21.722" height="13.162"/>
	<rect x="313.344" y="428.967" fill="#303B75" width="21.722" height="13.162"/>
	<rect x="313.344" y="449.129" fill="#4AA3BA" width="21.722" height="13.162"/>
	<rect x="313.344" y="469.291" fill="#A7D846" width="21.722" height="13.162"/>
	<rect x="313.344" y="489.453" fill="#DA5C53" width="21.722" height="13.162"/>
	<line fill="none" x1="85.852" y1="806.978" x2="1285.852" y2="806.978"/>
	<g>
		<line fill="none" stroke="#848484" stroke-miterlimit="10" x1="260.185" y1="732.812" x2="260.185" y2="821.609"/>
		<g>
			<path fill="#848484" d="M255.385,814.775c0.232-0.148,0.542-0.08,0.69,0.153l4.109,6.453l4.109-6.453
				c0.148-0.233,0.458-0.302,0.69-0.153c0.232,0.148,0.3,0.459,0.153,0.69l-4.531,7.115c-0.092,0.144-0.251,0.231-0.422,0.231
				s-0.33-0.087-0.422-0.231l-4.531-7.115c-0.053-0.083-0.078-0.176-0.078-0.268C255.154,815.033,255.236,814.871,255.385,814.775z"
				/>
		</g>
	</g>
	<g>
		<line fill="none" stroke="#848484" stroke-miterlimit="10" x1="718.852" y1="647.478" x2="718.852" y2="706.276"/>
		<g>
			<path fill="#848484" d="M714.052,699.442c0.232-0.148,0.542-0.08,0.69,0.153l4.109,6.453l4.109-6.453
				c0.148-0.233,0.458-0.302,0.69-0.153s0.3,0.459,0.153,0.69l-4.531,7.115c-0.092,0.144-0.251,0.231-0.422,0.231
				s-0.33-0.087-0.422-0.231l-4.531-7.115c-0.053-0.083-0.078-0.176-0.078-0.268C713.82,699.699,713.902,699.538,714.052,699.442z"
				/>
		</g>
	</g>
	<g>
		<line fill="none" stroke="#848484" stroke-miterlimit="10" x1="1076.852" y1="845.478" x2="1076.852" y2="874.276"/>
		<g>
			<path fill="#848484" d="M1072.052,867.442c0.232-0.148,0.542-0.08,0.69,0.153l4.109,6.453l4.109-6.453
				c0.148-0.233,0.458-0.302,0.69-0.153s0.3,0.459,0.153,0.69l-4.531,7.115c-0.092,0.144-0.251,0.231-0.422,0.231
				s-0.33-0.087-0.422-0.231l-4.531-7.115c-0.053-0.083-0.078-0.176-0.078-0.268C1071.82,867.699,1071.902,867.538,1072.052,867.442
				z"/>
		</g>
	</g>
	<g>
		<line fill="none" stroke="#848484" stroke-miterlimit="10" x1="152.185" y1="613.478" x2="152.185" y2="632.276"/>
		<g>
			<path fill="#848484" d="M147.385,625.442c0.232-0.148,0.542-0.08,0.69,0.153l4.109,6.453l4.109-6.453
				c0.148-0.233,0.458-0.302,0.69-0.153c0.232,0.148,0.3,0.459,0.153,0.69l-4.531,7.115c-0.092,0.144-0.251,0.231-0.422,0.231
				s-0.33-0.087-0.422-0.231l-4.531-7.115c-0.053-0.083-0.078-0.176-0.078-0.268C147.154,625.699,147.236,625.538,147.385,625.442z"
				/>
		</g>
	</g>
	<g>
		<line fill="none" stroke="#848484" stroke-miterlimit="10" x1="1004.852" y1="794.478" x2="1004.852" y2="863.276"/>
		<g>
			<path fill="#848484" d="M1000.052,856.442c0.232-0.148,0.542-0.08,0.69,0.153l4.109,6.453l4.109-6.453
				c0.148-0.233,0.458-0.302,0.69-0.153s0.3,0.459,0.153,0.69l-4.531,7.115c-0.092,0.144-0.251,0.231-0.422,0.231
				s-0.33-0.087-0.422-0.231l-4.531-7.115c-0.053-0.083-0.078-0.176-0.078-0.268C999.82,856.699,999.902,856.538,1000.052,856.442z"
				/>
		</g>
	</g>
	<g>
		<line fill="none" stroke="#848484" stroke-miterlimit="10" x1="790.185" y1="683.478" x2="790.185" y2="822.276"/>
		<g>
			<path fill="#848484" d="M785.385,815.442c0.232-0.148,0.542-0.08,0.69,0.153l4.109,6.453l4.109-6.453
				c0.148-0.233,0.458-0.302,0.69-0.153s0.3,0.459,0.153,0.69l-4.531,7.115c-0.092,0.144-0.251,0.231-0.422,0.231
				s-0.33-0.087-0.422-0.231l-4.531-7.115c-0.053-0.083-0.078-0.176-0.078-0.268C785.154,815.699,785.236,815.538,785.385,815.442z"
				/>
		</g>
	</g>
	<g>
		<line fill="none" stroke="#848484" stroke-miterlimit="10" x1="896.852" y1="739.478" x2="896.852" y2="848.276"/>
		<g>
			<path fill="#848484" d="M892.052,841.442c0.232-0.148,0.542-0.08,0.69,0.153l4.109,6.453l4.109-6.453
				c0.148-0.233,0.458-0.302,0.69-0.153s0.3,0.459,0.153,0.69l-4.531,7.115c-0.092,0.144-0.251,0.231-0.422,0.231
				s-0.33-0.087-0.422-0.231l-4.531-7.115c-0.053-0.083-0.078-0.176-0.078-0.268C891.82,841.699,891.902,841.538,892.052,841.442z"
				/>
		</g>
	</g>
	<g>
		<line fill="none" stroke="#848484" stroke-miterlimit="10" x1="295.852" y1="769.812" x2="295.852" y2="828.609"/>
		<g>
			<path fill="#848484" d="M291.052,821.775c0.232-0.148,0.542-0.08,0.69,0.153l4.109,6.453l4.109-6.453
				c0.148-0.233,0.458-0.302,0.69-0.153s0.3,0.459,0.153,0.69l-4.531,7.115c-0.092,0.144-0.251,0.231-0.422,0.231
				s-0.33-0.087-0.422-0.231l-4.531-7.115c-0.053-0.083-0.078-0.176-0.078-0.268C290.82,822.033,290.902,821.871,291.052,821.775z"
				/>
		</g>
	</g>
</g>
<style>
#g-committee-donations-desktop-img rect, #g-committee-donations-desktop-img circle, #g-committee-donations-desktop-img path, #g-committee-donations-desktop-img line, #g-committee-donations-desktop-img polyline { vector-effect: non-scaling-stroke; }
</style>
</svg>

