<?xml version="1.0" encoding="utf-8"?>
<!-- Generator: Adobe Illustrator 23.1.1, SVG Export Plug-In . SVG Version: 6.00 Build 0)  -->
<svg version="1.2" baseProfile="tiny" id="g-occupation-tablet-1200-img" xmlns="http://www.w3.org/2000/svg" xmlns:xlink="http://www.w3.org/1999/xlink"
	 x="0px" y="0px" viewBox="0 0 1200 1400" xml:space="preserve">
<g>
	<g>
		<g>
			
			
			
		</g>
		<g>
			
			
			
			
			
		</g>
	</g>
	<g>
		
		
		
			<text transform="matrix(1 -6.800001e-04 6.800001e-04 1 3044.3577 588.8688)" fill="#FFFFFF" font-family="'Roboto-Regular'" font-size="6.4905px">501</text>
		
			<text transform="matrix(1 -6.800001e-04 6.800001e-04 1 3041.1311 596.6593)" fill="#FFFFFF" font-family="'Roboto-Regular'" font-size="6.4905px">22.9%</text>
		
		
			<text transform="matrix(1 -6.800001e-04 6.800001e-04 1 3085.1855 531.5055)" fill="#FFFFFF" font-family="'Roboto-Regular'" font-size="6.0269px">361</text>
		
			<text transform="matrix(1 -6.800001e-04 6.800001e-04 1 3082.1897 538.7398)" fill="#FFFFFF" font-family="'Roboto-Regular'" font-size="6.0269px">16.5%</text>
		
			<text transform="matrix(1 -6.800001e-04 6.800001e-04 1 3065.2678 520.3358)" fill="#FFFFFF" font-family="'Roboto-Bold'" font-size="6.9541px">U</text>
		
			<text transform="matrix(1 -6.800001e-04 6.800001e-04 1 3069.845 520.3327)" fill="#FFFFFF" font-family="'Roboto-Bold'" font-size="6.9541px">n</text>
		
			<text transform="matrix(1 -6.800001e-04 6.800001e-04 1 3073.7395 520.3301)" fill="#FFFFFF" font-family="'Roboto-Bold'" font-size="6.9541px">d</text>
		
			<text transform="matrix(1 -6.800001e-04 6.800001e-04 1 3077.6584 520.3274)" fill="#FFFFFF" font-family="'Roboto-Bold'" font-size="6.9541px">e</text>
		
			<text transform="matrix(1 -6.800001e-04 6.800001e-04 1 3081.417 520.3248)" fill="#FFFFFF" font-family="'Roboto-Bold'" font-size="6.9541px">r</text>
		
			<text transform="matrix(1 -6.800001e-04 6.800001e-04 1 3083.9531 520.3231)" fill="#FFFFFF" font-family="'Roboto-Bold'" font-size="6.9541px">g</text>
		
			<text transform="matrix(1 -6.800001e-04 6.800001e-04 1 3087.9229 520.3204)" fill="#FFFFFF" font-family="'Roboto-Bold'" font-size="6.9541px">r</text>
		
			<text transform="matrix(1 -6.800001e-04 6.800001e-04 1 3090.3623 520.3188)" fill="#FFFFFF" font-family="'Roboto-Bold'" font-size="6.9541px">a</text>
		
			<text transform="matrix(1 -6.800001e-04 6.800001e-04 1 3094.0898 520.3162)" fill="#FFFFFF" font-family="'Roboto-Bold'" font-size="6.9541px">d</text>
		
			<text transform="matrix(1 -6.800001e-04 6.800001e-04 1 3098.0088 520.3136)" fill="#FFFFFF" font-family="'Roboto-Bold'" font-size="6.9541px">u</text>
		
			<text transform="matrix(1 -6.800001e-04 6.800001e-04 1 3101.9004 520.3109)" fill="#FFFFFF" font-family="'Roboto-Bold'" font-size="6.9541px">a</text>
		
			<text transform="matrix(1 -6.800001e-04 6.800001e-04 1 3105.6277 520.3084)" fill="#FFFFFF" font-family="'Roboto-Bold'" font-size="6.9541px">t</text>
		
			<text transform="matrix(1 -6.800001e-04 6.800001e-04 1 3107.9773 520.3068)" fill="#FFFFFF" font-family="'Roboto-Bold'" font-size="6.9541px">e</text>
		
			<text transform="matrix(1 -6.800001e-04 6.800001e-04 1 3111.7371 520.3043)" fill="#FFFFFF" font-family="'Roboto-Bold'" font-size="6.9541px">s</text>
		
		
			<text transform="matrix(1 -6.900000e-04 6.900000e-04 1 3012.2205 534.7277)" fill="#FFFFFF" font-family="'Roboto-Regular'" font-size="5.0997px">232</text>
		
			<text transform="matrix(1 -6.900000e-04 6.900000e-04 1 3009.6853 540.8488)" fill="#FFFFFF" font-family="'Roboto-Regular'" font-size="5.0997px">10.6%</text>
		
			<text transform="matrix(1 -6.800001e-04 6.800001e-04 1 3003.3535 518.8083)" fill="#FFFFFF" font-family="'Roboto-Bold'" font-size="6.0269px">G</text>
		
			<text transform="matrix(1 -6.800001e-04 6.800001e-04 1 3007.459 518.8055)" fill="#FFFFFF" font-family="'Roboto-Bold'" font-size="6.0269px">r</text>
		
			<text transform="matrix(1 -6.800001e-04 6.800001e-04 1 3009.5728 518.8041)" fill="#FFFFFF" font-family="'Roboto-Bold'" font-size="6.0269px">a</text>
		
			<text transform="matrix(1 -6.800001e-04 6.800001e-04 1 3012.8037 518.8019)" fill="#FFFFFF" font-family="'Roboto-Bold'" font-size="6.0269px">d</text>
		
			<text transform="matrix(1 -6.800001e-04 6.800001e-04 1 3016.1997 518.7996)" fill="#FFFFFF" font-family="'Roboto-Bold'" font-size="6.0269px">u</text>
		
			<text transform="matrix(1 -6.800001e-04 6.800001e-04 1 3019.5723 518.7973)" fill="#FFFFFF" font-family="'Roboto-Bold'" font-size="6.0269px">a</text>
		
			<text transform="matrix(1 -6.800001e-04 6.800001e-04 1 3022.8035 518.7951)" fill="#FFFFFF" font-family="'Roboto-Bold'" font-size="6.0269px">t</text>
		
			<text transform="matrix(1 -6.800001e-04 6.800001e-04 1 3024.8396 518.7938)" fill="#FFFFFF" font-family="'Roboto-Bold'" font-size="6.0269px">e</text>
		
			<text transform="matrix(1 -6.800001e-04 6.800001e-04 1 3028.0974 518.7915)" fill="#FFFFFF" font-family="'Roboto-Bold'" font-size="6.0269px"> </text>
		
			<text transform="matrix(1 -6.800001e-04 6.800001e-04 1 3004.6418 526.0397)" fill="#FFFFFF" font-family="'Roboto-Bold'" font-size="6.0269px">students</text>
		
		
			<text transform="matrix(1 -6.700000e-04 6.700000e-04 1 2969.9307 544.7455)" fill="#FFFFFF" font-family="'Roboto-Regular'" font-size="3.7088px">100</text>
		
			<text transform="matrix(1 -6.700000e-04 6.700000e-04 1 2969.1289 549.1962)" fill="#FFFFFF" font-family="'Roboto-Regular'" font-size="3.7088px">4.6%</text>
		
			<text transform="matrix(1 -6.900000e-04 6.900000e-04 1 2962.7463 533.0748)" fill="#FFFFFF" font-family="'Roboto-Bold'" font-size="4.6361px">Teaching </text>
		
			<text transform="matrix(1 -6.900000e-04 6.900000e-04 1 2963.3806 538.6378)" fill="#FFFFFF" font-family="'Roboto-Bold'" font-size="4.6361px">positions</text>
		
			<text transform="matrix(1 -6.800001e-04 6.800001e-04 1 3090.0225 644.0762)" fill="#FFFFFF" font-family="'Roboto-Regular'" font-size="6.4905px">413</text>
		
			<text transform="matrix(1 -6.800001e-04 6.800001e-04 1 3086.7959 651.8671)" fill="#FFFFFF" font-family="'Roboto-Regular'" font-size="6.4905px">18.8%</text>
		
			<text transform="matrix(1 -6.700000e-04 6.700000e-04 1 3084.5769 633.4246)" fill="#FFFFFF" font-family="'Roboto-Bold'" font-size="7.4177px">Admin</text>
		
			<text transform="matrix(1 -6.700000e-04 6.700000e-04 1 3098.8403 584.9258)" fill="#FFFFFF" font-family="'Roboto-Regular'" font-size="3.7088px">48</text>
		
			<text transform="matrix(1 -6.700000e-04 6.700000e-04 1 3096.9956 589.3772)" fill="#FFFFFF" font-family="'Roboto-Regular'" font-size="3.7088px">2.2%</text>
		
			<text transform="matrix(1 -6.900000e-04 6.900000e-04 1 3095.0872 578.9543)" fill="#FFFFFF" font-family="'Roboto-Bold'" font-size="4.6361px">Other</text>
		
		
			<text transform="matrix(1 -6.800001e-04 6.800001e-04 1 2971.8416 589.9291)" fill="#FFFFFF" font-family="'Roboto-Regular'" font-size="5.5633px">251</text>
		
			<text transform="matrix(1 -6.800001e-04 6.800001e-04 1 2969.0757 596.6068)" fill="#FFFFFF" font-family="'Roboto-Regular'" font-size="5.5633px">11.5%</text>
		
			<text transform="matrix(1 -6.800001e-04 6.800001e-04 1 2961.1401 572.6182)" fill="#FFFFFF" font-family="'Roboto-Bold'" font-size="6.4905px">Academia </text>
		
			<text transform="matrix(1 -6.800001e-04 6.800001e-04 1 2960.8599 580.4067)" fill="#FFFFFF" font-family="'Roboto-Bold'" font-size="6.4905px">&amp;</text>
		
			<text transform="matrix(1 -6.800001e-04 6.800001e-04 1 2965.1189 580.4038)" fill="#FFFFFF" font-family="'Roboto-Bold'" font-size="6.4905px"> </text>
		
			<text transform="matrix(1 -6.800001e-04 6.800001e-04 1 2966.7351 580.4027)" fill="#FFFFFF" font-family="'Roboto-Bold'" font-size="6.4905px">r</text>
		
			<text transform="matrix(1 -6.800001e-04 6.800001e-04 1 2969.1028 580.4011)" fill="#FFFFFF" font-family="'Roboto-Bold'" font-size="6.4905px">e</text>
		
			<text transform="matrix(1 -6.800001e-04 6.800001e-04 1 2972.6111 580.3987)" fill="#FFFFFF" font-family="'Roboto-Bold'" font-size="6.4905px">s</text>
		
			<text transform="matrix(1 -6.800001e-04 6.800001e-04 1 2975.948 580.3964)" fill="#FFFFFF" font-family="'Roboto-Bold'" font-size="6.4905px">e</text>
		
			<text transform="matrix(1 -6.800001e-04 6.800001e-04 1 2979.4563 580.394)" fill="#FFFFFF" font-family="'Roboto-Bold'" font-size="6.4905px">a</text>
		
			<text transform="matrix(1 -6.800001e-04 6.800001e-04 1 2982.9363 580.3917)" fill="#FFFFFF" font-family="'Roboto-Bold'" font-size="6.4905px">r</text>
		
			<text transform="matrix(1 -6.800001e-04 6.800001e-04 1 2985.2449 580.3901)" fill="#FFFFFF" font-family="'Roboto-Bold'" font-size="6.4905px">c</text>
		
			<text transform="matrix(1 -6.800001e-04 6.800001e-04 1 2988.6294 580.3878)" fill="#FFFFFF" font-family="'Roboto-Bold'" font-size="6.4905px">h</text>
		
		
			<text transform="matrix(1.0005 -6.803741e-04 6.800001e-04 1 2998.9692 642.3245)" fill="#FFFFFF" font-family="'Roboto-Regular'" font-size="6.0269px">282</text>
		
			<text transform="matrix(1.0005 -6.803741e-04 6.800001e-04 1 2995.9714 649.5588)" fill="#FFFFFF" font-family="'Roboto-Regular'" font-size="6.0269px">12.9%</text>
		
			<text transform="matrix(1.0005 -6.803741e-04 6.800001e-04 1 2991.6597 623.2302)" fill="#FFFFFF" font-family="'Roboto-Bold'" font-size="6.9541px">Medical</text>
		
			<text transform="matrix(1.0005 -6.803741e-04 6.800001e-04 1 2991.1917 631.5753)" fill="#FFFFFF" font-family="'Roboto-Bold'" font-size="6.9541px">&amp; health</text>
		
		
			<text transform="matrix(1 -6.700000e-04 6.700000e-04 1 3037.7031 578.6579)" fill="#FFFFFF" font-family="'Roboto-Bold'" font-size="7.4177px">F</text>
		
			<text transform="matrix(1 -6.700000e-04 6.700000e-04 1 3041.6479 578.6552)" fill="#FFFFFF" font-family="'Roboto-Bold'" font-size="7.4177px">a</text>
		
			<text transform="matrix(1 -6.700000e-04 6.700000e-04 1 3045.6255 578.6526)" fill="#FFFFFF" font-family="'Roboto-Bold'" font-size="7.4177px">c</text>
		
			<text transform="matrix(1 -6.700000e-04 6.700000e-04 1 3049.4934 578.65)" fill="#FFFFFF" font-family="'Roboto-Bold'" font-size="7.4177px">u</text>
		
			<text transform="matrix(1 -6.700000e-04 6.700000e-04 1 3053.6438 578.6472)" fill="#FFFFFF" font-family="'Roboto-Bold'" font-size="7.4177px">l</text>
		
			<text transform="matrix(1 -6.700000e-04 6.700000e-04 1 3055.6106 578.6459)" fill="#FFFFFF" font-family="'Roboto-Bold'" font-size="7.4177px">t</text>
		
			<text transform="matrix(1 -6.700000e-04 6.700000e-04 1 3058.1165 578.6442)" fill="#FFFFFF" font-family="'Roboto-Bold'" font-size="7.4177px">y</text>
		
			<text transform="matrix(1 -6.800001e-04 6.800001e-04 1 3018.5535 470.9426)" fill="#4AA3BA" font-family="'Roboto-Bold'" font-size="11.1265px">2015-16</text>
		<text transform="matrix(1 0 0 1 3018.6924 710.1396)" fill="#4AA3BA" font-family="'Roboto-Bold'" font-size="11.1265px">2019-20</text>
		
		<text transform="matrix(1 0 0 1 3040.6631 856.5078)" fill="#FFFFFF" font-family="'Roboto-Regular'" font-size="8.3449px">740</text>
		<text transform="matrix(1 0 0 1 3036.5073 866.5215)" fill="#FFFFFF" font-family="'Roboto-Regular'" font-size="8.3449px">18.1%</text>
		<text transform="matrix(1 0 0 1 3032.6084 843.4609)" fill="#FFFFFF" font-family="'Roboto-Bold'" font-size="9.2721px">F</text>
		<text transform="matrix(1 0 0 1 3037.5396 843.4609)" fill="#FFFFFF" font-family="'Roboto-Bold'" font-size="9.2721px">a</text>
		<text transform="matrix(1 0 0 1 3042.5107 843.4609)" fill="#FFFFFF" font-family="'Roboto-Bold'" font-size="9.2721px">c</text>
		<text transform="matrix(1 0 0 1 3047.3457 843.4609)" fill="#FFFFFF" font-family="'Roboto-Bold'" font-size="9.2721px">u</text>
		<text transform="matrix(1 0 0 1 3052.5342 843.4609)" fill="#FFFFFF" font-family="'Roboto-Bold'" font-size="9.2721px">l</text>
		<text transform="matrix(1 0 0 1 3054.9932 843.4609)" fill="#FFFFFF" font-family="'Roboto-Bold'" font-size="9.2721px">t</text>
		<text transform="matrix(1 0 0 1 3058.126 843.4609)" fill="#FFFFFF" font-family="'Roboto-Bold'" font-size="9.2721px">y</text>
		<text transform="matrix(1 0 0 1 3092.3311 805.6289)" fill="#FFFFFF" font-family="'Roboto-Regular'" font-size="5.0996px">273</text>
		<text transform="matrix(1 0 0 1 3091.2246 811.748)" fill="#FFFFFF" font-family="'Roboto-Regular'" font-size="5.0996px">6.7%</text>
		<text transform="matrix(1 0 0 1 3074.9424 796.7998)" fill="#FFFFFF" font-family="'Roboto-Bold'" font-size="6.0269px">U</text>
		<text transform="matrix(1 0 0 1 3078.9092 796.7998)" fill="#FFFFFF" font-family="'Roboto-Bold'" font-size="6.0269px">n</text>
		<text transform="matrix(1 0 0 1 3082.2852 796.7998)" fill="#FFFFFF" font-family="'Roboto-Bold'" font-size="6.0269px">d</text>
		<text transform="matrix(1 0 0 1 3085.6807 796.7998)" fill="#FFFFFF" font-family="'Roboto-Bold'" font-size="6.0269px">e</text>
		<text transform="matrix(1 0 0 1 3088.9385 796.7998)" fill="#FFFFFF" font-family="'Roboto-Bold'" font-size="6.0269px">r</text>
		<text transform="matrix(1 0 0 1 3091.1367 796.7998)" fill="#FFFFFF" font-family="'Roboto-Bold'" font-size="6.0269px">g</text>
		<text transform="matrix(1 0 0 1 3094.5771 796.7998)" fill="#FFFFFF" font-family="'Roboto-Bold'" font-size="6.0269px">r</text>
		<text transform="matrix(1 0 0 1 3096.6904 796.7998)" fill="#FFFFFF" font-family="'Roboto-Bold'" font-size="6.0269px">a</text>
		<text transform="matrix(1 0 0 1 3099.9219 796.7998)" fill="#FFFFFF" font-family="'Roboto-Bold'" font-size="6.0269px">d</text>
		<text transform="matrix(1 0 0 1 3103.3184 796.7998)" fill="#FFFFFF" font-family="'Roboto-Bold'" font-size="6.0269px">u</text>
		<text transform="matrix(1 0 0 1 3106.6904 796.7998)" fill="#FFFFFF" font-family="'Roboto-Bold'" font-size="6.0269px">a</text>
		<text transform="matrix(1 0 0 1 3109.9219 796.7998)" fill="#FFFFFF" font-family="'Roboto-Bold'" font-size="6.0269px">t</text>
		<text transform="matrix(1 0 0 1 3111.958 796.7998)" fill="#FFFFFF" font-family="'Roboto-Bold'" font-size="6.0269px">e</text>
		<text transform="matrix(1 0 0 1 3115.2158 796.7998)" fill="#FFFFFF" font-family="'Roboto-Bold'" font-size="6.0269px">s</text>
		<text transform="matrix(1 0 0 1 3013.9932 783.8447)" fill="#FFFFFF" font-family="'Roboto-Regular'" font-size="6.9541px">564</text>
		<text transform="matrix(1 0 0 1 3010.5303 792.1895)" fill="#FFFFFF" font-family="'Roboto-Regular'" font-size="6.9541px">13.8%</text>
		<text transform="matrix(1 0 0 1 3002.6943 763.7148)" fill="#FFFFFF" font-family="'Roboto-Bold'" font-size="7.8813px">G</text>
		<text transform="matrix(1 0 0 1 3008.0625 763.7148)" fill="#FFFFFF" font-family="'Roboto-Bold'" font-size="7.8813px">r</text>
		<text transform="matrix(1 0 0 1 3010.8271 763.7148)" fill="#FFFFFF" font-family="'Roboto-Bold'" font-size="7.8813px">a</text>
		<text transform="matrix(1 0 0 1 3015.0522 763.7148)" fill="#FFFFFF" font-family="'Roboto-Bold'" font-size="7.8813px">d</text>
		<text transform="matrix(1 0 0 1 3019.4932 763.7148)" fill="#FFFFFF" font-family="'Roboto-Bold'" font-size="7.8813px">u</text>
		<text transform="matrix(1 0 0 1 3023.9033 763.7148)" fill="#FFFFFF" font-family="'Roboto-Bold'" font-size="7.8813px">a</text>
		<text transform="matrix(1 0 0 1 3028.1289 763.7148)" fill="#FFFFFF" font-family="'Roboto-Bold'" font-size="7.8813px">t</text>
		<text transform="matrix(1 0 0 1 3030.792 763.7148)" fill="#FFFFFF" font-family="'Roboto-Bold'" font-size="7.8813px">e</text>
		<text transform="matrix(1 0 0 1 3035.0518 763.7148)" fill="#FFFFFF" font-family="'Roboto-Bold'" font-size="7.8813px"> </text>
		<text transform="matrix(1 0 0 1 3004.373 773.1729)" fill="#FFFFFF" font-family="'Roboto-Bold'" font-size="7.8813px">students</text>
		<text transform="matrix(1 0 0 1 2954.2451 804.9385)" fill="#FFFFFF" font-family="'Roboto-Regular'" font-size="5.0996px">250</text>
		<text transform="matrix(1 0 0 1 2953.1387 811.0576)" fill="#FFFFFF" font-family="'Roboto-Regular'" font-size="5.0996px">6.1%</text>
		<text transform="matrix(1 0 0 1 2945.2148 790.5918)" fill="#FFFFFF" font-family="'Roboto-Bold'" font-size="6.0269px">Teaching </text>
		<text transform="matrix(1 0 0 1 2946.0283 797.8242)" fill="#FFFFFF" font-family="'Roboto-Bold'" font-size="6.0269px">positions</text>
		<text transform="matrix(1 0 0 1 3101.8965 927.9814)" fill="#FFFFFF" font-family="'Roboto-Regular'" font-size="8.8085px">1805</text>
		<text transform="matrix(1 0 0 1 3099.9854 938.5518)" fill="#FFFFFF" font-family="'Roboto-Regular'" font-size="8.8085px">25.9%</text>
		<text transform="matrix(1 0 0 1 3097.54 915.4209)" fill="#FFFFFF" font-family="'Roboto-Bold'" font-size="9.7357px">Admin</text>
		<text transform="matrix(1 0 0 1 3108.2998 855.2236)" fill="#FFFFFF" font-family="'Roboto-Regular'" font-size="5.0996px">140</text>
		<text transform="matrix(1 0 0 1 3107.1934 861.3428)" fill="#FFFFFF" font-family="'Roboto-Regular'" font-size="5.0996px">3.4%</text>
		<text transform="matrix(1 0 0 1 3105.082 847.5078)" fill="#FFFFFF" font-family="'Roboto-Bold'" font-size="6.0269px">Other</text>
		<text transform="matrix(1 0 0 1 2949.1357 871.084)" fill="#FFFFFF" font-family="'Roboto-Regular'" font-size="6.9541px">548</text>
		<text transform="matrix(1 0 0 1 2945.6724 879.4287)" fill="#FFFFFF" font-family="'Roboto-Regular'" font-size="6.9541px">13.4%</text>
		<text transform="matrix(1 0 0 1 2936.2734 850.0977)" fill="#FFFFFF" font-family="'Roboto-Bold'" font-size="7.8813px">Academia </text>
		<text transform="matrix(1 0 0 1 2935.9268 859.5557)" fill="#FFFFFF" font-family="'Roboto-Bold'" font-size="7.8813px">&amp;</text>
		<text transform="matrix(1 0 0 1 2941.0986 859.5557)" fill="#FFFFFF" font-family="'Roboto-Bold'" font-size="7.8813px"> </text>
		<text transform="matrix(1 0 0 1 2943.0615 859.5557)" fill="#FFFFFF" font-family="'Roboto-Bold'" font-size="7.8813px">r</text>
		<text transform="matrix(1 0 0 1 2945.936 859.5557)" fill="#FFFFFF" font-family="'Roboto-Bold'" font-size="7.8813px">e</text>
		<text transform="matrix(1 0 0 1 2950.1963 859.5557)" fill="#FFFFFF" font-family="'Roboto-Bold'" font-size="7.8813px">s</text>
		<text transform="matrix(1 0 0 1 2954.2485 859.5557)" fill="#FFFFFF" font-family="'Roboto-Bold'" font-size="7.8813px">e</text>
		<text transform="matrix(1 0 0 1 2958.5083 859.5557)" fill="#FFFFFF" font-family="'Roboto-Bold'" font-size="7.8813px">a</text>
		<text transform="matrix(1 0 0 1 2962.7339 859.5557)" fill="#FFFFFF" font-family="'Roboto-Bold'" font-size="7.8813px">r</text>
		<text transform="matrix(1 0 0 1 2965.5376 859.5557)" fill="#FFFFFF" font-family="'Roboto-Bold'" font-size="7.8813px">c</text>
		<text transform="matrix(1 0 0 1 2969.6475 859.5557)" fill="#FFFFFF" font-family="'Roboto-Bold'" font-size="7.8813px">h</text>
		<text transform="matrix(1.0006 0 0 1 2997.3574 928.0752)" fill="#FFFFFF" font-family="'Roboto-Regular'" font-size="6.9541px">510</text>
		<text transform="matrix(1.0006 0 0 1 2993.8926 936.4199)" fill="#FFFFFF" font-family="'Roboto-Regular'" font-size="6.9541px">12.5%</text>
		<text transform="matrix(1.0006 0 0 1 2989.1523 906.6934)" fill="#FFFFFF" font-family="'Roboto-Bold'" font-size="7.8813px">Medical</text>
		<text transform="matrix(1.0006 0 0 1 2988.6162 916.1514)" fill="#FFFFFF" font-family="'Roboto-Bold'" font-size="7.8813px">&amp; health</text>
		
		<text transform="matrix(1 0 0 1 2913.8462 417.4541)" font-family="'Roboto-Bold'" font-size="18px">Columbia affiliate donations by </text>
		<text transform="matrix(1 0 0 1 2996.8623 439.0542)" font-family="'Roboto-Bold'" font-size="18px">p</text>
		<text transform="matrix(1 0 0 1 3006.9961 439.0542)" font-family="'Roboto-Bold'" font-size="18px">r</text>
		<text transform="matrix(1 0 0 1 3013.2554 439.0542)" font-family="'Roboto-Bold'" font-size="18px">o</text>
		<text transform="matrix(1 0 0 1 3023.4331 439.0542)" font-family="'Roboto-Bold'" font-size="18px">f</text>
		<text transform="matrix(1 0 0 1 3029.8843 439.0542)" font-family="'Roboto-Bold'" font-size="18px">e</text>
		<text transform="matrix(1 0 0 1 3039.6138 439.0542)" font-family="'Roboto-Bold'" font-size="18px">s</text>
		<text transform="matrix(1 0 0 1 3048.8691 439.0542)" font-family="'Roboto-Bold'" font-size="18px">s</text>
		<text transform="matrix(1 0 0 1 3058.124 439.0542)" font-family="'Roboto-Bold'" font-size="18px">i</text>
		<text transform="matrix(1 0 0 1 3062.8965 439.0542)" font-family="'Roboto-Bold'" font-size="18px">o</text>
		<text transform="matrix(1 0 0 1 3073.0742 439.0542)" font-family="'Roboto-Bold'" font-size="18px">n</text>
	</g>
	
		<line style="opacity:0.7;" fill="none" stroke="#777777" stroke-miterlimit="10" x1="86.045" y1="924.617" x2="1009.745" y2="334.305"/>
	<g>
		
		
		
	</g>
	<g>
		
	</g>
	<g>
		
	</g>
	<g>
		
	</g>
	<g>
		
	</g>
	<g>
		
	</g>
	<path style="opacity:0.5;" fill="none" stroke="#3F5EBA" stroke-width="11" stroke-miterlimit="10" d="M643.185,458.628
		c0.049,71.039-57.494,117.14-128.533,117.188s-128.659-57.494-128.708-128.532c-0.001-3.219,0.109-6.399,0.348-9.555
		c-3.941-0.074-7.831-0.324-11.684-0.729c-5.601,55.952-52.826,99.664-110.255,99.703c-61.23,0.042-110.914-49.573-110.956-110.803
		c-0.008-11.229,1.657-22.077,4.768-32.293c-45.134-12.298-78.324-53.573-78.357-102.614c-0.023-32.149,14.214-60.974,36.718-80.518
		c-7.636-11.641-12.081-25.551-12.092-40.516c-0.028-40.945,33.137-74.155,74.08-74.183c7.983-0.005,15.677,1.257,22.876,3.584
		c15.815-37.139,52.647-63.193,95.567-63.222c35.9-0.025,67.554,18.15,86.227,45.826C403.303,37.687,447.887,6.889,499.69,6.854
		c70.684-0.048,128.026,57.215,128.076,127.9c0.032,47.431-25.739,88.848-64.058,110.988c11.729,10.092,19.165,25.051,19.177,41.74
		c0.011,16.348-7.1,31.039-18.397,41.146C610.703,348.098,643.148,405.328,643.185,458.628z"/>
</g>
<style>
#g-occupation-tablet-1200-img rect, #g-occupation-tablet-1200-img circle, #g-occupation-tablet-1200-img path, #g-occupation-tablet-1200-img line, #g-occupation-tablet-1200-img polyline { vector-effect: non-scaling-stroke; }
</style>
</svg>

