<?xml version="1.0" encoding="utf-8"?>
<!-- Generator: Adobe Illustrator 23.1.1, SVG Export Plug-In . SVG Version: 6.00 Build 0)  -->
<svg version="1.2" baseProfile="tiny" id="g-occupation-tablet-600-img" xmlns="http://www.w3.org/2000/svg" xmlns:xlink="http://www.w3.org/1999/xlink"
	 x="0px" y="0px" viewBox="0 0 600 1000" xml:space="preserve">
<g>
	<g>
		
		
		
			<text transform="matrix(1 -6.800001e-04 6.800001e-04 1 1524.3577 388.8688)" fill="#FFFFFF" font-family="'Roboto-Regular'" font-size="6.4905px">501</text>
		
			<text transform="matrix(1 -6.800001e-04 6.800001e-04 1 1521.131 396.6593)" fill="#FFFFFF" font-family="'Roboto-Regular'" font-size="6.4905px">22.9%</text>
		
		
			<text transform="matrix(1 -6.800001e-04 6.800001e-04 1 1565.1857 331.5055)" fill="#FFFFFF" font-family="'Roboto-Regular'" font-size="6.0269px">361</text>
		
			<text transform="matrix(1 -6.800001e-04 6.800001e-04 1 1562.1896 338.7398)" fill="#FFFFFF" font-family="'Roboto-Regular'" font-size="6.0269px">16.5%</text>
		
			<text transform="matrix(1 -6.800001e-04 6.800001e-04 1 1545.2678 320.3358)" fill="#FFFFFF" font-family="'Roboto-Bold'" font-size="6.9541px">U</text>
		
			<text transform="matrix(1 -6.800001e-04 6.800001e-04 1 1549.845 320.3327)" fill="#FFFFFF" font-family="'Roboto-Bold'" font-size="6.9541px">n</text>
		
			<text transform="matrix(1 -6.800001e-04 6.800001e-04 1 1553.7394 320.3301)" fill="#FFFFFF" font-family="'Roboto-Bold'" font-size="6.9541px">d</text>
		
			<text transform="matrix(1 -6.800001e-04 6.800001e-04 1 1557.6583 320.3274)" fill="#FFFFFF" font-family="'Roboto-Bold'" font-size="6.9541px">e</text>
		
			<text transform="matrix(1 -6.800001e-04 6.800001e-04 1 1561.4171 320.3249)" fill="#FFFFFF" font-family="'Roboto-Bold'" font-size="6.9541px">r</text>
		
			<text transform="matrix(1 -6.800001e-04 6.800001e-04 1 1563.9532 320.3231)" fill="#FFFFFF" font-family="'Roboto-Bold'" font-size="6.9541px">g</text>
		
			<text transform="matrix(1 -6.800001e-04 6.800001e-04 1 1567.9229 320.3204)" fill="#FFFFFF" font-family="'Roboto-Bold'" font-size="6.9541px">r</text>
		
			<text transform="matrix(1 -6.800001e-04 6.800001e-04 1 1570.3623 320.3188)" fill="#FFFFFF" font-family="'Roboto-Bold'" font-size="6.9541px">a</text>
		
			<text transform="matrix(1 -6.800001e-04 6.800001e-04 1 1574.0898 320.3162)" fill="#FFFFFF" font-family="'Roboto-Bold'" font-size="6.9541px">d</text>
		
			<text transform="matrix(1 -6.800001e-04 6.800001e-04 1 1578.0087 320.3136)" fill="#FFFFFF" font-family="'Roboto-Bold'" font-size="6.9541px">u</text>
		
			<text transform="matrix(1 -6.800001e-04 6.800001e-04 1 1581.9003 320.3109)" fill="#FFFFFF" font-family="'Roboto-Bold'" font-size="6.9541px">a</text>
		
			<text transform="matrix(1 -6.800001e-04 6.800001e-04 1 1585.6278 320.3084)" fill="#FFFFFF" font-family="'Roboto-Bold'" font-size="6.9541px">t</text>
		
			<text transform="matrix(1 -6.800001e-04 6.800001e-04 1 1587.9774 320.3068)" fill="#FFFFFF" font-family="'Roboto-Bold'" font-size="6.9541px">e</text>
		
			<text transform="matrix(1 -6.800001e-04 6.800001e-04 1 1591.7371 320.3042)" fill="#FFFFFF" font-family="'Roboto-Bold'" font-size="6.9541px">s</text>
		
		
			<text transform="matrix(1 -6.900000e-04 6.900000e-04 1 1492.2205 334.7278)" fill="#FFFFFF" font-family="'Roboto-Regular'" font-size="5.0997px">232</text>
		
			<text transform="matrix(1 -6.900000e-04 6.900000e-04 1 1489.6854 340.8488)" fill="#FFFFFF" font-family="'Roboto-Regular'" font-size="5.0997px">10.6%</text>
		
			<text transform="matrix(1 -6.800001e-04 6.800001e-04 1 1483.3536 318.8083)" fill="#FFFFFF" font-family="'Roboto-Bold'" font-size="6.0269px">G</text>
		
			<text transform="matrix(1 -6.800001e-04 6.800001e-04 1 1487.459 318.8056)" fill="#FFFFFF" font-family="'Roboto-Bold'" font-size="6.0269px">r</text>
		
			<text transform="matrix(1 -6.800001e-04 6.800001e-04 1 1489.5728 318.8041)" fill="#FFFFFF" font-family="'Roboto-Bold'" font-size="6.0269px">a</text>
		
			<text transform="matrix(1 -6.800001e-04 6.800001e-04 1 1492.8037 318.8019)" fill="#FFFFFF" font-family="'Roboto-Bold'" font-size="6.0269px">d</text>
		
			<text transform="matrix(1 -6.800001e-04 6.800001e-04 1 1496.1996 318.7996)" fill="#FFFFFF" font-family="'Roboto-Bold'" font-size="6.0269px">u</text>
		
			<text transform="matrix(1 -6.800001e-04 6.800001e-04 1 1499.5721 318.7973)" fill="#FFFFFF" font-family="'Roboto-Bold'" font-size="6.0269px">a</text>
		
			<text transform="matrix(1 -6.800001e-04 6.800001e-04 1 1502.8036 318.7951)" fill="#FFFFFF" font-family="'Roboto-Bold'" font-size="6.0269px">t</text>
		
			<text transform="matrix(1 -6.800001e-04 6.800001e-04 1 1504.8397 318.7937)" fill="#FFFFFF" font-family="'Roboto-Bold'" font-size="6.0269px">e</text>
		
			<text transform="matrix(1 -6.800001e-04 6.800001e-04 1 1508.0975 318.7915)" fill="#FFFFFF" font-family="'Roboto-Bold'" font-size="6.0269px"> </text>
		
			<text transform="matrix(1 -6.800001e-04 6.800001e-04 1 1484.642 326.0397)" fill="#FFFFFF" font-family="'Roboto-Bold'" font-size="6.0269px">students</text>
		
		
			<text transform="matrix(1 -6.700000e-04 6.700000e-04 1 1449.9305 344.7455)" fill="#FFFFFF" font-family="'Roboto-Regular'" font-size="3.7088px">100</text>
		
			<text transform="matrix(1 -6.700000e-04 6.700000e-04 1 1449.1289 349.1963)" fill="#FFFFFF" font-family="'Roboto-Regular'" font-size="3.7088px">4.6%</text>
		
			<text transform="matrix(1 -6.900000e-04 6.900000e-04 1 1442.7465 333.0748)" fill="#FFFFFF" font-family="'Roboto-Bold'" font-size="4.6361px">Teaching </text>
		
			<text transform="matrix(1 -6.900000e-04 6.900000e-04 1 1443.3806 338.6378)" fill="#FFFFFF" font-family="'Roboto-Bold'" font-size="4.6361px">positions</text>
		
			<text transform="matrix(1 -6.800001e-04 6.800001e-04 1 1570.0223 444.0762)" fill="#FFFFFF" font-family="'Roboto-Regular'" font-size="6.4905px">413</text>
		
			<text transform="matrix(1 -6.800001e-04 6.800001e-04 1 1566.7958 451.8672)" fill="#FFFFFF" font-family="'Roboto-Regular'" font-size="6.4905px">18.8%</text>
		
			<text transform="matrix(1 -6.700000e-04 6.700000e-04 1 1564.577 433.4246)" fill="#FFFFFF" font-family="'Roboto-Bold'" font-size="7.4177px">Admin</text>
		
			<text transform="matrix(1 -6.700000e-04 6.700000e-04 1 1578.8403 384.9258)" fill="#FFFFFF" font-family="'Roboto-Regular'" font-size="3.7088px">48</text>
		
			<text transform="matrix(1 -6.700000e-04 6.700000e-04 1 1576.9957 389.3772)" fill="#FFFFFF" font-family="'Roboto-Regular'" font-size="3.7088px">2.2%</text>
		
			<text transform="matrix(1 -6.900000e-04 6.900000e-04 1 1575.087 378.9543)" fill="#FFFFFF" font-family="'Roboto-Bold'" font-size="4.6361px">Other</text>
		
		
			<text transform="matrix(1 -6.800001e-04 6.800001e-04 1 1451.8414 389.9291)" fill="#FFFFFF" font-family="'Roboto-Regular'" font-size="5.5633px">251</text>
		
			<text transform="matrix(1 -6.800001e-04 6.800001e-04 1 1449.0758 396.6068)" fill="#FFFFFF" font-family="'Roboto-Regular'" font-size="5.5633px">11.5%</text>
		
			<text transform="matrix(1 -6.800001e-04 6.800001e-04 1 1441.1401 372.6182)" fill="#FFFFFF" font-family="'Roboto-Bold'" font-size="6.4905px">Academia </text>
		
			<text transform="matrix(1 -6.800001e-04 6.800001e-04 1 1440.8597 380.4067)" fill="#FFFFFF" font-family="'Roboto-Bold'" font-size="6.4905px">&amp;</text>
		
			<text transform="matrix(1 -6.800001e-04 6.800001e-04 1 1445.119 380.4038)" fill="#FFFFFF" font-family="'Roboto-Bold'" font-size="6.4905px"> </text>
		
			<text transform="matrix(1 -6.800001e-04 6.800001e-04 1 1446.7352 380.4027)" fill="#FFFFFF" font-family="'Roboto-Bold'" font-size="6.4905px">r</text>
		
			<text transform="matrix(1 -6.800001e-04 6.800001e-04 1 1449.1029 380.4011)" fill="#FFFFFF" font-family="'Roboto-Bold'" font-size="6.4905px">e</text>
		
			<text transform="matrix(1 -6.800001e-04 6.800001e-04 1 1452.6111 380.3987)" fill="#FFFFFF" font-family="'Roboto-Bold'" font-size="6.4905px">s</text>
		
			<text transform="matrix(1 -6.800001e-04 6.800001e-04 1 1455.948 380.3964)" fill="#FFFFFF" font-family="'Roboto-Bold'" font-size="6.4905px">e</text>
		
			<text transform="matrix(1 -6.800001e-04 6.800001e-04 1 1459.4563 380.394)" fill="#FFFFFF" font-family="'Roboto-Bold'" font-size="6.4905px">a</text>
		
			<text transform="matrix(1 -6.800001e-04 6.800001e-04 1 1462.9362 380.3917)" fill="#FFFFFF" font-family="'Roboto-Bold'" font-size="6.4905px">r</text>
		
			<text transform="matrix(1 -6.800001e-04 6.800001e-04 1 1465.2448 380.3901)" fill="#FFFFFF" font-family="'Roboto-Bold'" font-size="6.4905px">c</text>
		
			<text transform="matrix(1 -6.800001e-04 6.800001e-04 1 1468.6295 380.3878)" fill="#FFFFFF" font-family="'Roboto-Bold'" font-size="6.4905px">h</text>
		
		
			<text transform="matrix(1.0005 -6.803741e-04 6.800001e-04 1 1478.9694 442.3245)" fill="#FFFFFF" font-family="'Roboto-Regular'" font-size="6.0269px">282</text>
		
			<text transform="matrix(1.0005 -6.803741e-04 6.800001e-04 1 1475.9714 449.5588)" fill="#FFFFFF" font-family="'Roboto-Regular'" font-size="6.0269px">12.9%</text>
		
			<text transform="matrix(1.0005 -6.803741e-04 6.800001e-04 1 1471.6595 423.2302)" fill="#FFFFFF" font-family="'Roboto-Bold'" font-size="6.9541px">Medical</text>
		
			<text transform="matrix(1.0005 -6.803741e-04 6.800001e-04 1 1471.1917 431.5753)" fill="#FFFFFF" font-family="'Roboto-Bold'" font-size="6.9541px">&amp; health</text>
		
		
			<text transform="matrix(1 -6.700000e-04 6.700000e-04 1 1517.7031 378.6579)" fill="#FFFFFF" font-family="'Roboto-Bold'" font-size="7.4177px">F</text>
		
			<text transform="matrix(1 -6.700000e-04 6.700000e-04 1 1521.6479 378.6552)" fill="#FFFFFF" font-family="'Roboto-Bold'" font-size="7.4177px">a</text>
		
			<text transform="matrix(1 -6.700000e-04 6.700000e-04 1 1525.6254 378.6526)" fill="#FFFFFF" font-family="'Roboto-Bold'" font-size="7.4177px">c</text>
		
			<text transform="matrix(1 -6.700000e-04 6.700000e-04 1 1529.4935 378.65)" fill="#FFFFFF" font-family="'Roboto-Bold'" font-size="7.4177px">u</text>
		
			<text transform="matrix(1 -6.700000e-04 6.700000e-04 1 1533.6439 378.6472)" fill="#FFFFFF" font-family="'Roboto-Bold'" font-size="7.4177px">l</text>
		
			<text transform="matrix(1 -6.700000e-04 6.700000e-04 1 1535.6106 378.6459)" fill="#FFFFFF" font-family="'Roboto-Bold'" font-size="7.4177px">t</text>
		
			<text transform="matrix(1 -6.700000e-04 6.700000e-04 1 1538.1165 378.6442)" fill="#FFFFFF" font-family="'Roboto-Bold'" font-size="7.4177px">y</text>
		
			<text transform="matrix(1 -6.800001e-04 6.800001e-04 1 1498.5536 270.9426)" fill="#4AA3BA" font-family="'Roboto-Bold'" font-size="11.1265px">2015-16</text>
		<text transform="matrix(1 0 0 1 1498.6924 510.1396)" fill="#4AA3BA" font-family="'Roboto-Bold'" font-size="11.1265px">2019-20</text>
		
		<text transform="matrix(1 0 0 1 1520.6631 656.5078)" fill="#FFFFFF" font-family="'Roboto-Regular'" font-size="8.3449px">740</text>
		<text transform="matrix(1 0 0 1 1516.5073 666.5215)" fill="#FFFFFF" font-family="'Roboto-Regular'" font-size="8.3449px">18.1%</text>
		<text transform="matrix(1 0 0 1 1512.6084 643.4609)" fill="#FFFFFF" font-family="'Roboto-Bold'" font-size="9.2721px">F</text>
		<text transform="matrix(1 0 0 1 1517.5396 643.4609)" fill="#FFFFFF" font-family="'Roboto-Bold'" font-size="9.2721px">a</text>
		<text transform="matrix(1 0 0 1 1522.5107 643.4609)" fill="#FFFFFF" font-family="'Roboto-Bold'" font-size="9.2721px">c</text>
		<text transform="matrix(1 0 0 1 1527.3457 643.4609)" fill="#FFFFFF" font-family="'Roboto-Bold'" font-size="9.2721px">u</text>
		<text transform="matrix(1 0 0 1 1532.5342 643.4609)" fill="#FFFFFF" font-family="'Roboto-Bold'" font-size="9.2721px">l</text>
		<text transform="matrix(1 0 0 1 1534.9932 643.4609)" fill="#FFFFFF" font-family="'Roboto-Bold'" font-size="9.2721px">t</text>
		<text transform="matrix(1 0 0 1 1538.126 643.4609)" fill="#FFFFFF" font-family="'Roboto-Bold'" font-size="9.2721px">y</text>
		<text transform="matrix(1 0 0 1 1572.3311 605.6289)" fill="#FFFFFF" font-family="'Roboto-Regular'" font-size="5.0996px">273</text>
		<text transform="matrix(1 0 0 1 1571.2246 611.748)" fill="#FFFFFF" font-family="'Roboto-Regular'" font-size="5.0996px">6.7%</text>
		<text transform="matrix(1 0 0 1 1554.9424 596.7998)" fill="#FFFFFF" font-family="'Roboto-Bold'" font-size="6.0269px">U</text>
		<text transform="matrix(1 0 0 1 1558.9092 596.7998)" fill="#FFFFFF" font-family="'Roboto-Bold'" font-size="6.0269px">n</text>
		<text transform="matrix(1 0 0 1 1562.2852 596.7998)" fill="#FFFFFF" font-family="'Roboto-Bold'" font-size="6.0269px">d</text>
		<text transform="matrix(1 0 0 1 1565.6807 596.7998)" fill="#FFFFFF" font-family="'Roboto-Bold'" font-size="6.0269px">e</text>
		<text transform="matrix(1 0 0 1 1568.9385 596.7998)" fill="#FFFFFF" font-family="'Roboto-Bold'" font-size="6.0269px">r</text>
		<text transform="matrix(1 0 0 1 1571.1367 596.7998)" fill="#FFFFFF" font-family="'Roboto-Bold'" font-size="6.0269px">g</text>
		<text transform="matrix(1 0 0 1 1574.5771 596.7998)" fill="#FFFFFF" font-family="'Roboto-Bold'" font-size="6.0269px">r</text>
		<text transform="matrix(1 0 0 1 1576.6904 596.7998)" fill="#FFFFFF" font-family="'Roboto-Bold'" font-size="6.0269px">a</text>
		<text transform="matrix(1 0 0 1 1579.9219 596.7998)" fill="#FFFFFF" font-family="'Roboto-Bold'" font-size="6.0269px">d</text>
		<text transform="matrix(1 0 0 1 1583.3184 596.7998)" fill="#FFFFFF" font-family="'Roboto-Bold'" font-size="6.0269px">u</text>
		<text transform="matrix(1 0 0 1 1586.6904 596.7998)" fill="#FFFFFF" font-family="'Roboto-Bold'" font-size="6.0269px">a</text>
		<text transform="matrix(1 0 0 1 1589.9219 596.7998)" fill="#FFFFFF" font-family="'Roboto-Bold'" font-size="6.0269px">t</text>
		<text transform="matrix(1 0 0 1 1591.958 596.7998)" fill="#FFFFFF" font-family="'Roboto-Bold'" font-size="6.0269px">e</text>
		<text transform="matrix(1 0 0 1 1595.2158 596.7998)" fill="#FFFFFF" font-family="'Roboto-Bold'" font-size="6.0269px">s</text>
		<text transform="matrix(1 0 0 1 1493.9932 583.8447)" fill="#FFFFFF" font-family="'Roboto-Regular'" font-size="6.9541px">564</text>
		<text transform="matrix(1 0 0 1 1490.5303 592.1895)" fill="#FFFFFF" font-family="'Roboto-Regular'" font-size="6.9541px">13.8%</text>
		<text transform="matrix(1 0 0 1 1482.6943 563.7148)" fill="#FFFFFF" font-family="'Roboto-Bold'" font-size="7.8813px">G</text>
		<text transform="matrix(1 0 0 1 1488.0625 563.7148)" fill="#FFFFFF" font-family="'Roboto-Bold'" font-size="7.8813px">r</text>
		<text transform="matrix(1 0 0 1 1490.8271 563.7148)" fill="#FFFFFF" font-family="'Roboto-Bold'" font-size="7.8813px">a</text>
		<text transform="matrix(1 0 0 1 1495.0522 563.7148)" fill="#FFFFFF" font-family="'Roboto-Bold'" font-size="7.8813px">d</text>
		<text transform="matrix(1 0 0 1 1499.4932 563.7148)" fill="#FFFFFF" font-family="'Roboto-Bold'" font-size="7.8813px">u</text>
		<text transform="matrix(1 0 0 1 1503.9033 563.7148)" fill="#FFFFFF" font-family="'Roboto-Bold'" font-size="7.8813px">a</text>
		<text transform="matrix(1 0 0 1 1508.1289 563.7148)" fill="#FFFFFF" font-family="'Roboto-Bold'" font-size="7.8813px">t</text>
		<text transform="matrix(1 0 0 1 1510.792 563.7148)" fill="#FFFFFF" font-family="'Roboto-Bold'" font-size="7.8813px">e</text>
		<text transform="matrix(1 0 0 1 1515.0518 563.7148)" fill="#FFFFFF" font-family="'Roboto-Bold'" font-size="7.8813px"> </text>
		<text transform="matrix(1 0 0 1 1484.373 573.1729)" fill="#FFFFFF" font-family="'Roboto-Bold'" font-size="7.8813px">students</text>
		<text transform="matrix(1 0 0 1 1434.2451 604.9385)" fill="#FFFFFF" font-family="'Roboto-Regular'" font-size="5.0996px">250</text>
		<text transform="matrix(1 0 0 1 1433.1387 611.0576)" fill="#FFFFFF" font-family="'Roboto-Regular'" font-size="5.0996px">6.1%</text>
		<text transform="matrix(1 0 0 1 1425.2148 590.5918)" fill="#FFFFFF" font-family="'Roboto-Bold'" font-size="6.0269px">Teaching </text>
		<text transform="matrix(1 0 0 1 1426.0283 597.8242)" fill="#FFFFFF" font-family="'Roboto-Bold'" font-size="6.0269px">positions</text>
		<text transform="matrix(1 0 0 1 1581.8965 727.9814)" fill="#FFFFFF" font-family="'Roboto-Regular'" font-size="8.8085px">1805</text>
		<text transform="matrix(1 0 0 1 1579.9854 738.5518)" fill="#FFFFFF" font-family="'Roboto-Regular'" font-size="8.8085px">25.9%</text>
		<text transform="matrix(1 0 0 1 1577.54 715.4209)" fill="#FFFFFF" font-family="'Roboto-Bold'" font-size="9.7357px">Admin</text>
		<text transform="matrix(1 0 0 1 1588.2998 655.2236)" fill="#FFFFFF" font-family="'Roboto-Regular'" font-size="5.0996px">140</text>
		<text transform="matrix(1 0 0 1 1587.1934 661.3428)" fill="#FFFFFF" font-family="'Roboto-Regular'" font-size="5.0996px">3.4%</text>
		<text transform="matrix(1 0 0 1 1585.082 647.5078)" fill="#FFFFFF" font-family="'Roboto-Bold'" font-size="6.0269px">Other</text>
		<text transform="matrix(1 0 0 1 1429.1357 671.084)" fill="#FFFFFF" font-family="'Roboto-Regular'" font-size="6.9541px">548</text>
		<text transform="matrix(1 0 0 1 1425.6724 679.4287)" fill="#FFFFFF" font-family="'Roboto-Regular'" font-size="6.9541px">13.4%</text>
		<text transform="matrix(1 0 0 1 1416.2734 650.0977)" fill="#FFFFFF" font-family="'Roboto-Bold'" font-size="7.8813px">Academia </text>
		<text transform="matrix(1 0 0 1 1415.9268 659.5557)" fill="#FFFFFF" font-family="'Roboto-Bold'" font-size="7.8813px">&amp;</text>
		<text transform="matrix(1 0 0 1 1421.0986 659.5557)" fill="#FFFFFF" font-family="'Roboto-Bold'" font-size="7.8813px"> </text>
		<text transform="matrix(1 0 0 1 1423.0615 659.5557)" fill="#FFFFFF" font-family="'Roboto-Bold'" font-size="7.8813px">r</text>
		<text transform="matrix(1 0 0 1 1425.936 659.5557)" fill="#FFFFFF" font-family="'Roboto-Bold'" font-size="7.8813px">e</text>
		<text transform="matrix(1 0 0 1 1430.1963 659.5557)" fill="#FFFFFF" font-family="'Roboto-Bold'" font-size="7.8813px">s</text>
		<text transform="matrix(1 0 0 1 1434.2485 659.5557)" fill="#FFFFFF" font-family="'Roboto-Bold'" font-size="7.8813px">e</text>
		<text transform="matrix(1 0 0 1 1438.5083 659.5557)" fill="#FFFFFF" font-family="'Roboto-Bold'" font-size="7.8813px">a</text>
		<text transform="matrix(1 0 0 1 1442.7339 659.5557)" fill="#FFFFFF" font-family="'Roboto-Bold'" font-size="7.8813px">r</text>
		<text transform="matrix(1 0 0 1 1445.5376 659.5557)" fill="#FFFFFF" font-family="'Roboto-Bold'" font-size="7.8813px">c</text>
		<text transform="matrix(1 0 0 1 1449.6475 659.5557)" fill="#FFFFFF" font-family="'Roboto-Bold'" font-size="7.8813px">h</text>
		<text transform="matrix(1.0006 0 0 1 1477.3574 728.0752)" fill="#FFFFFF" font-family="'Roboto-Regular'" font-size="6.9541px">510</text>
		<text transform="matrix(1.0006 0 0 1 1473.8926 736.4199)" fill="#FFFFFF" font-family="'Roboto-Regular'" font-size="6.9541px">12.5%</text>
		<text transform="matrix(1.0006 0 0 1 1469.1523 706.6934)" fill="#FFFFFF" font-family="'Roboto-Bold'" font-size="7.8813px">Medical</text>
		<text transform="matrix(1.0006 0 0 1 1468.6162 716.1514)" fill="#FFFFFF" font-family="'Roboto-Bold'" font-size="7.8813px">&amp; health</text>
		
		<text transform="matrix(1 0 0 1 1393.8462 217.4541)" font-family="'Roboto-Bold'" font-size="18px">Columbia affiliate donations by </text>
		<text transform="matrix(1 0 0 1 1476.8623 239.0542)" font-family="'Roboto-Bold'" font-size="18px">p</text>
		<text transform="matrix(1 0 0 1 1486.9961 239.0542)" font-family="'Roboto-Bold'" font-size="18px">r</text>
		<text transform="matrix(1 0 0 1 1493.2554 239.0542)" font-family="'Roboto-Bold'" font-size="18px">o</text>
		<text transform="matrix(1 0 0 1 1503.4331 239.0542)" font-family="'Roboto-Bold'" font-size="18px">f</text>
		<text transform="matrix(1 0 0 1 1509.8843 239.0542)" font-family="'Roboto-Bold'" font-size="18px">e</text>
		<text transform="matrix(1 0 0 1 1519.6138 239.0542)" font-family="'Roboto-Bold'" font-size="18px">s</text>
		<text transform="matrix(1 0 0 1 1528.8691 239.0542)" font-family="'Roboto-Bold'" font-size="18px">s</text>
		<text transform="matrix(1 0 0 1 1538.124 239.0542)" font-family="'Roboto-Bold'" font-size="18px">i</text>
		<text transform="matrix(1 0 0 1 1542.8965 239.0542)" font-family="'Roboto-Bold'" font-size="18px">o</text>
		<text transform="matrix(1 0 0 1 1553.0742 239.0542)" font-family="'Roboto-Bold'" font-size="18px">n</text>
	</g>
	<g>
		<path fill="none" stroke="#777777" stroke-miterlimit="10" d="M-294.456-207.829c16.828-0.746,195.382-5.76,295.061,132.136
			C46.924-11.616,56.231,55.678,58.268,91.165"/>
		<g>
			<path fill="#777777" d="M52.945,84.71c0.221-0.165,0.534-0.12,0.7,0.101l4.582,6.126l3.613-6.743
				c0.13-0.243,0.434-0.335,0.677-0.205s0.333,0.436,0.205,0.677l-3.984,7.435c-0.081,0.15-0.233,0.25-0.403,0.262
				s-0.336-0.062-0.438-0.199l-5.053-6.754c-0.059-0.079-0.091-0.17-0.098-0.261C52.734,84.984,52.803,84.817,52.945,84.71z"/>
		</g>
	</g>
	<g>
		<g>
			
			
			
		</g>
		<g>
			
		</g>
		<g>
			
		</g>
		<g>
			
		</g>
		<g>
			
		</g>
		<g>
			
		</g>
		<g>
			
		</g>
		<g>
			
			
			
		</g>
		<g>
			
			
			
			
			
		</g>
		<text transform="matrix(1 0 0 1 600.0966 1232.6869)" fill="#FFFFFF" font-family="'Roboto-Regular'" font-size="19.008px">740</text>
		<text transform="matrix(1 0 0 1 590.6317 1255.4955)" fill="#FFFFFF" font-family="'Roboto-Regular'" font-size="19.008px">18.1%</text>
		<text transform="matrix(1 0 0 1 581.7509 1202.9681)" fill="#FFFFFF" font-family="'Roboto-Bold'" font-size="21.12px">F</text>
		<text transform="matrix(1 0 0 1 592.9833 1202.9681)" fill="#FFFFFF" font-family="'Roboto-Bold'" font-size="21.12px">a</text>
		<text transform="matrix(1 0 0 1 604.3065 1202.9681)" fill="#FFFFFF" font-family="'Roboto-Bold'" font-size="21.12px">c</text>
		<text transform="matrix(1 0 0 1 615.3202 1202.9681)" fill="#FFFFFF" font-family="'Roboto-Bold'" font-size="21.12px">u</text>
		<text transform="matrix(1 0 0 1 627.1385 1202.9681)" fill="#FFFFFF" font-family="'Roboto-Bold'" font-size="21.12px">l</text>
		<text transform="matrix(1 0 0 1 632.7382 1202.9681)" fill="#FFFFFF" font-family="'Roboto-Bold'" font-size="21.12px">t</text>
		<text transform="matrix(1 0 0 1 639.8749 1202.9681)" fill="#FFFFFF" font-family="'Roboto-Bold'" font-size="21.12px">y</text>
		<text transform="matrix(1 0 0 1 717.785 1116.7933)" fill="#FFFFFF" font-family="'Roboto-Regular'" font-size="11.616px">273</text>
		<text transform="matrix(1 0 0 1 715.2645 1130.7318)" fill="#FFFFFF" font-family="'Roboto-Regular'" font-size="11.616px">6.7%</text>
		<text transform="matrix(1 0 0 1 678.1766 1096.684)" fill="#FFFFFF" font-family="'Roboto-Bold'" font-size="13.728px">U</text>
		<text transform="matrix(1 0 0 1 687.2128 1096.684)" fill="#FFFFFF" font-family="'Roboto-Bold'" font-size="13.728px">n</text>
		<text transform="matrix(1 0 0 1 694.9012 1096.684)" fill="#FFFFFF" font-family="'Roboto-Bold'" font-size="13.728px">d</text>
		<text transform="matrix(1 0 0 1 702.6366 1096.684)" fill="#FFFFFF" font-family="'Roboto-Bold'" font-size="13.728px">e</text>
		<text transform="matrix(1 0 0 1 710.0565 1096.684)" fill="#FFFFFF" font-family="'Roboto-Bold'" font-size="13.728px">r</text>
		<text transform="matrix(1 0 0 1 715.0643 1096.684)" fill="#FFFFFF" font-family="'Roboto-Bold'" font-size="13.728px">g</text>
		<text transform="matrix(1 0 0 1 722.9003 1096.684)" fill="#FFFFFF" font-family="'Roboto-Bold'" font-size="13.728px">r</text>
		<text transform="matrix(1 0 0 1 727.7147 1096.684)" fill="#FFFFFF" font-family="'Roboto-Bold'" font-size="13.728px">a</text>
		<text transform="matrix(1 0 0 1 735.0751 1096.684)" fill="#FFFFFF" font-family="'Roboto-Bold'" font-size="13.728px">d</text>
		<text transform="matrix(1 0 0 1 742.8104 1096.684)" fill="#FFFFFF" font-family="'Roboto-Bold'" font-size="13.728px">u</text>
		<text transform="matrix(1 0 0 1 750.4921 1096.684)" fill="#FFFFFF" font-family="'Roboto-Bold'" font-size="13.728px">a</text>
		<text transform="matrix(1 0 0 1 757.8524 1096.684)" fill="#FFFFFF" font-family="'Roboto-Bold'" font-size="13.728px">t</text>
		<text transform="matrix(1 0 0 1 762.4911 1096.684)" fill="#FFFFFF" font-family="'Roboto-Bold'" font-size="13.728px">e</text>
		<text transform="matrix(1 0 0 1 769.911 1096.684)" fill="#FFFFFF" font-family="'Roboto-Bold'" font-size="13.728px">s</text>
		<text transform="matrix(1 0 0 1 539.3485 1067.1732)" fill="#FFFFFF" font-family="'Roboto-Regular'" font-size="15.84px">564</text>
		<text transform="matrix(1 0 0 1 531.4608 1086.181)" fill="#FFFFFF" font-family="'Roboto-Regular'" font-size="15.84px">13.8%</text>
		<text transform="matrix(1 0 0 1 513.6093 1021.3197)" fill="#FFFFFF" font-family="'Roboto-Bold'" font-size="17.952px">G</text>
		<text transform="matrix(1 0 0 1 525.8378 1021.3197)" fill="#FFFFFF" font-family="'Roboto-Bold'" font-size="17.952px">r</text>
		<text transform="matrix(1 0 0 1 532.1337 1021.3197)" fill="#FFFFFF" font-family="'Roboto-Bold'" font-size="17.952px">a</text>
		<text transform="matrix(1 0 0 1 541.7587 1021.3197)" fill="#FFFFFF" font-family="'Roboto-Bold'" font-size="17.952px">d</text>
		<text transform="matrix(1 0 0 1 551.8739 1021.3197)" fill="#FFFFFF" font-family="'Roboto-Bold'" font-size="17.952px">u</text>
		<text transform="matrix(1 0 0 1 561.9198 1021.3197)" fill="#FFFFFF" font-family="'Roboto-Bold'" font-size="17.952px">a</text>
		<text transform="matrix(1 0 0 1 571.5438 1021.3197)" fill="#FFFFFF" font-family="'Roboto-Bold'" font-size="17.952px">t</text>
		<text transform="matrix(1 0 0 1 577.6102 1021.3197)" fill="#FFFFFF" font-family="'Roboto-Bold'" font-size="17.952px">e</text>
		<text transform="matrix(1 0 0 1 587.3134 1021.3197)" fill="#FFFFFF" font-family="'Roboto-Bold'" font-size="17.952px"> </text>
		<text transform="matrix(1 0 0 1 517.4335 1042.8627)" fill="#FFFFFF" font-family="'Roboto-Bold'" font-size="17.952px">students</text>
		<text transform="matrix(1 0 0 1 403.2528 1115.2181)" fill="#FFFFFF" font-family="'Roboto-Regular'" font-size="11.616px">250</text>
		<text transform="matrix(1 0 0 1 400.7333 1129.1576)" fill="#FFFFFF" font-family="'Roboto-Regular'" font-size="11.616px">6.1%</text>
		<text transform="matrix(1 0 0 1 382.6874 1082.5424)" fill="#FFFFFF" font-family="'Roboto-Bold'" font-size="13.728px">Teaching </text>
		<text transform="matrix(1 0 0 1 384.5546 1099.015)" fill="#FFFFFF" font-family="'Roboto-Bold'" font-size="13.728px">positions</text>
		<text transform="matrix(1 0 0 1 736.3768 1395.4857)" fill="#FFFFFF" font-family="'Roboto-Regular'" font-size="20.064px">1,805</text>
		<text transform="matrix(1 0 0 1 735.2225 1419.5619)" fill="#FFFFFF" font-family="'Roboto-Regular'" font-size="20.064px">25.9%</text>
		<text transform="matrix(1 0 0 1 729.6532 1366.8754)" fill="#FFFFFF" font-family="'Roboto-Bold'" font-size="22.176px">Admin</text>
		<text transform="matrix(1 0 0 1 754.1571 1229.7611)" fill="#FFFFFF" font-family="'Roboto-Regular'" font-size="11.616px">140</text>
		<text transform="matrix(1 0 0 1 751.6376 1243.7006)" fill="#FFFFFF" font-family="'Roboto-Regular'" font-size="11.616px">3.4%</text>
		<text transform="matrix(1 0 0 1 746.829 1212.1849)" fill="#FFFFFF" font-family="'Roboto-Bold'" font-size="13.728px">Other</text>
		<text transform="matrix(1 0 0 1 391.618 1265.8861)" fill="#FFFFFF" font-family="'Roboto-Regular'" font-size="15.84px">548</text>
		<text transform="matrix(1 0 0 1 383.7303 1284.8939)" fill="#FFFFFF" font-family="'Roboto-Regular'" font-size="15.84px">13.4%</text>
		<text transform="matrix(1 0 0 1 362.3192 1218.0834)" fill="#FFFFFF" font-family="'Roboto-Bold'" font-size="17.952px">Academia </text>
		<text transform="matrix(1 0 0 1 361.5302 1239.6263)" fill="#FFFFFF" font-family="'Roboto-Bold'" font-size="17.952px">&amp;</text>
		<text transform="matrix(1 0 0 1 373.3114 1239.6263)" fill="#FFFFFF" font-family="'Roboto-Bold'" font-size="17.952px"> </text>
		<text transform="matrix(1 0 0 1 377.7811 1239.6263)" fill="#FFFFFF" font-family="'Roboto-Bold'" font-size="17.952px">r</text>
		<text transform="matrix(1 0 0 1 384.33 1239.6263)" fill="#FFFFFF" font-family="'Roboto-Bold'" font-size="17.952px">e</text>
		<text transform="matrix(1 0 0 1 394.0331 1239.6263)" fill="#FFFFFF" font-family="'Roboto-Bold'" font-size="17.952px">s</text>
		<text transform="matrix(1 0 0 1 403.2635 1239.6263)" fill="#FFFFFF" font-family="'Roboto-Bold'" font-size="17.952px">e</text>
		<text transform="matrix(1 0 0 1 412.9667 1239.6263)" fill="#FFFFFF" font-family="'Roboto-Bold'" font-size="17.952px">a</text>
		<text transform="matrix(1 0 0 1 422.5917 1239.6263)" fill="#FFFFFF" font-family="'Roboto-Bold'" font-size="17.952px">r</text>
		<text transform="matrix(1 0 0 1 428.9774 1239.6263)" fill="#FFFFFF" font-family="'Roboto-Bold'" font-size="17.952px">c</text>
		<text transform="matrix(1 0 0 1 438.3397 1239.6263)" fill="#FFFFFF" font-family="'Roboto-Bold'" font-size="17.952px">h</text>
		<text transform="matrix(1.0006 0 0 1 501.4598 1395.7025)" fill="#FFFFFF" font-family="'Roboto-Regular'" font-size="15.84px">510</text>
		<text transform="matrix(1.0006 0 0 1 493.5673 1414.7103)" fill="#FFFFFF" font-family="'Roboto-Regular'" font-size="15.84px">12.5%</text>
		<text transform="matrix(1.0006 0 0 1 482.7645 1347.0004)" fill="#FFFFFF" font-family="'Roboto-Bold'" font-size="17.952px">Medical</text>
		<text transform="matrix(1.0006 0 0 1 481.5438 1368.5433)" fill="#FFFFFF" font-family="'Roboto-Bold'" font-size="17.952px">&amp; health</text>
		<g>
			
		</g>
	</g>
	<polygon fill="#9EAEDC" points="283.653,508.496 266.768,508.496 265.455,507.186 282.941,507.376 	"/>
</g>
<style>
#g-occupation-tablet-600-img rect, #g-occupation-tablet-600-img circle, #g-occupation-tablet-600-img path, #g-occupation-tablet-600-img line, #g-occupation-tablet-600-img polyline { vector-effect: non-scaling-stroke; }
</style>
</svg>

